<?xml version="1.0" encoding="utf-8"?>
<!-- Generator: Adobe Illustrator 18.0.0, SVG Export Plug-In . SVG Version: 6.00 Build 0)  -->
<!DOCTYPE svg PUBLIC "-//W3C//DTD SVG 1.1//EN" "http://www.w3.org/Graphics/SVG/1.1/DTD/svg11.dtd" [
	<!ENTITY ns_extend "http://ns.adobe.com/Extensibility/1.0/">
	<!ENTITY ns_ai "http://ns.adobe.com/AdobeIllustrator/10.0/">
	<!ENTITY ns_graphs "http://ns.adobe.com/Graphs/1.0/">
	<!ENTITY ns_vars "http://ns.adobe.com/Variables/1.0/">
	<!ENTITY ns_imrep "http://ns.adobe.com/ImageReplacement/1.0/">
	<!ENTITY ns_sfw "http://ns.adobe.com/SaveForWeb/1.0/">
	<!ENTITY ns_custom "http://ns.adobe.com/GenericCustomNamespace/1.0/">
	<!ENTITY ns_adobe_xpath "http://ns.adobe.com/XPath/1.0/">
]>
<svg version="1.1" id="Layer_1" xmlns:x="&ns_extend;" xmlns:i="&ns_ai;" xmlns:graph="&ns_graphs;"
	 xmlns="http://www.w3.org/2000/svg" xmlns:xlink="http://www.w3.org/1999/xlink" x="0px" y="0px" viewBox="0 581.1 612 210.9"
	 enable-background="new 0 581.1 612 210.9" xml:space="preserve">
<metadata>
	<sfw  xmlns="&ns_sfw;">
		<slices></slices>
		<sliceSourceBounds  height="1416.8" width="1018.9" y="-1074.8" x="-204" bottomLeftOrigin="true"></sliceSourceBounds>
	</sfw>
</metadata>
<pattern  y="792" width="72" height="72" patternUnits="userSpaceOnUse" id="SVGID_1_" viewBox="0 -72 72 72" overflow="visible">
	<g>
		<polygon fill="none" points="0,0 72,0 72,-72 0,-72 		"/>
		<g>
			<polygon fill="none" points="0,0 72,0 72,-72 0,-72 			"/>
			<polygon points="36,-36 72,-36 72,-72 36,-72 			"/>
			<polygon points="0,0 36,0 36,-36 0,-36 			"/>
		</g>
	</g>
</pattern>
<pattern  y="792" width="72" height="72" patternUnits="userSpaceOnUse" id="SVGID_2_" viewBox="0 -72 72 72" overflow="visible">
	<g>
		<polygon fill="none" points="0,0 72,0 72,-72 0,-72 		"/>
		<g>
			<polygon fill="none" points="0,0 72,0 72,-72 0,-72 			"/>
			<polygon points="36,-36 72,-36 72,-72 36,-72 			"/>
			<polygon points="0,0 36,0 36,-36 0,-36 			"/>
		</g>
	</g>
</pattern>
<pattern  y="792" width="72" height="72" patternUnits="userSpaceOnUse" id="SVGID_3_" viewBox="0 -72 72 72" overflow="visible">
	<g>
		<polygon fill="none" points="0,0 72,0 72,-72 0,-72 		"/>
		<g>
			<polygon fill="none" points="0,0 72,0 72,-72 0,-72 			"/>
			<polygon points="36,-36 72,-36 72,-72 36,-72 			"/>
			<polygon points="0,0 36,0 36,-36 0,-36 			"/>
		</g>
	</g>
</pattern>
<pattern  y="792" width="72" height="72" patternUnits="userSpaceOnUse" id="SVGID_4_" viewBox="0 -72 72 72" overflow="visible">
	<g>
		<polygon fill="none" points="0,0 72,0 72,-72 0,-72 		"/>
		<g>
			<polygon fill="none" points="0,0 72,0 72,-72 0,-72 			"/>
			<polygon points="36,-36 72,-36 72,-72 36,-72 			"/>
			<polygon points="0,0 36,0 36,-36 0,-36 			"/>
		</g>
	</g>
</pattern>
<pattern  y="792" width="72" height="72" patternUnits="userSpaceOnUse" id="SVGID_5_" viewBox="0 -72 72 72" overflow="visible">
	<g>
		<polygon fill="none" points="0,0 72,0 72,-72 0,-72 		"/>
		<g>
			<polygon fill="none" points="0,0 72,0 72,-72 0,-72 			"/>
			<polygon points="36,-36 72,-36 72,-72 36,-72 			"/>
			<polygon points="0,0 36,0 36,-36 0,-36 			"/>
		</g>
	</g>
</pattern>
<pattern  y="792" width="72" height="72" patternUnits="userSpaceOnUse" id="SVGID_6_" viewBox="0 -72 72 72" overflow="visible">
	<g>
		<polygon fill="none" points="0,0 72,0 72,-72 0,-72 		"/>
		<g>
			<polygon fill="none" points="0,0 72,0 72,-72 0,-72 			"/>
			<polygon points="36,-36 72,-36 72,-72 36,-72 			"/>
			<polygon points="0,0 36,0 36,-36 0,-36 			"/>
		</g>
	</g>
</pattern>
<g>
	<path fill="#CE181F" d="M135.7,782.8c7.1-2.9,14.2-6.3,21-10.2c15.4-9.7,27.9-23.5,36.2-39.8c-88.4,14.6-59.9-47.6-169.2,15
		c-0.6,0.3-1.1,0.7-1.7,1c18.5,24,47.7,39.4,80.4,39.4C114,788.3,125.2,786.4,135.7,782.8"/>
	<defs>
		<filter id="Adobe_OpacityMaskFilter" filterUnits="userSpaceOnUse" x="0.6" y="648" width="203.1" height="133.5">
			<feColorMatrix  type="matrix" values="1 0 0 0 0  0 1 0 0 0  0 0 1 0 0  0 0 0 1 0"/>
		</filter>
	</defs>
	<mask maskUnits="userSpaceOnUse" x="0.6" y="648" width="203.1" height="133.5" id="SVGID_13_">
		<g filter="url(#Adobe_OpacityMaskFilter)">
			<pattern  id="SVGID_7_" xlink:href="#SVGID_1_" patternTransform="matrix(1.052 0 0 -1.052 803.0508 -21109.0215)">
			</pattern>
			<rect x="0.6" y="648" fill="url(#SVGID_7_)" width="203.1" height="133.4"/>
		</g>
	</mask>
	<path opacity="0.49" mask="url(#SVGID_13_)" fill="#9D1B1F" enable-background="new    " d="M8.4,648h187.5c5,12,7.8,25.1,7.8,39
		c0,42.9-26.7,79.7-64.3,94.5H64.9c-37.7-15-64.3-51.7-64.3-94.6C0.6,673.1,3.3,660,8.4,648"/>
	<path fill="#ED1C24" d="M22.4,749.4L22.4,749.4c-0.1-0.1-0.2-0.3-0.3-0.5c0.5-0.5,1.1-0.8,1.7-1c109.3-62.6,80.9-0.5,169.2-15
		c7-13.8,11-29.5,11-46c0-2.4-0.1-4.6-0.2-7c-0.6,0.3,0.2,0.5-1.4,1.4c-21.1,10.3-46.3,24.4-68.9,28.7c-15.4,1.7-32.3-6.3-45-14.4
		c-1.9-1.2-3.1-1.9-5.2-3.2C38.5,665.6,26,692.3,1,691.3C1.9,713,9.8,733.3,22.4,749.4"/>
	<path fill="#F26D68" d="M1,691.5c23.4,1,37.7-24.3,82.1,1c2.1,1.2,3.4,2,5.2,3.2c24.2,15.5,43.2,21.6,67.5,8.7
		c16-7.3,30.6-15.4,46.6-23.1c1.6-0.9,0.8-1,1.4-1.4c0-0.7-0.1-1.2-0.1-1.8c-1,0.1-2.3,0.5-3.5,0.5c-55.9,1.2-56.6-45.7-103.1-41.4
		c-29.6,2.6-60.2,25.5-94.8,33.5c-0.9,5.2-1.2,10.6-1.2,16.2C0.9,688.4,0.9,690,1,691.5"/>
	<defs>
		<filter id="Adobe_OpacityMaskFilter_1_" filterUnits="userSpaceOnUse" x="0.8" y="606.8" width="203" height="143.1">
			<feColorMatrix  type="matrix" values="1 0 0 0 0  0 1 0 0 0  0 0 1 0 0  0 0 0 1 0"/>
		</filter>
	</defs>
	<mask maskUnits="userSpaceOnUse" x="0.8" y="606.8" width="203" height="143.1" id="SVGID_15_">
		<g filter="url(#Adobe_OpacityMaskFilter_1_)">
			<pattern  id="SVGID_8_" xlink:href="#SVGID_2_" patternTransform="matrix(1.052 0 0 -1.052 800.6245 -21150.0801)">
			</pattern>
			<rect x="0.8" y="606.8" fill="url(#SVGID_8_)" width="203.1" height="143.1"/>
		</g>
	</mask>
	<path opacity="0.49" mask="url(#SVGID_15_)" fill="#A01C1F" enable-background="new    " d="M39.8,606.8h125
		c23.7,18.5,39,47.5,39,80c0,23.8-8.3,45.8-21.9,63.1l-18.8-22.6L22.7,749.9c-13.8-17.3-21.9-39.2-21.9-63
		C0.8,654.4,16,625.5,39.8,606.8"/>
	<path fill="#F26D68" d="M1,691.5c23.4,1,37.7-24.3,82.1,1c2.1,1.2,3.4,2,5.2,3.2c24.2,15.5,43.2,21.6,67.5,8.7
		c16-7.3,30.6-15.4,46.6-23.1c1.6-0.9,0.8-1,1.4-1.4c0-0.7-0.1-1.2-0.1-1.8c-1,0.1-2.3,0.5-3.5,0.5c-55.9,1.2-56.6-45.7-103.1-41.4
		c-29.6,2.6-60.2,25.5-94.8,33.5c-0.9,5.2-1.2,10.6-1.2,16.2C0.9,688.4,0.9,690,1,691.5"/>
	<defs>
		<filter id="Adobe_OpacityMaskFilter_2_" filterUnits="userSpaceOnUse" x="2.1" y="606.5" width="201.4" height="72">
			<feColorMatrix  type="matrix" values="1 0 0 0 0  0 1 0 0 0  0 0 1 0 0  0 0 0 1 0"/>
		</filter>
	</defs>
	<mask maskUnits="userSpaceOnUse" x="2.1" y="606.5" width="201.4" height="72" id="SVGID_17_">
		<g filter="url(#Adobe_OpacityMaskFilter_2_)">
			<pattern  id="SVGID_9_" xlink:href="#SVGID_3_" patternTransform="matrix(1.052 0 0 -1.052 802.3523 -21184.2324)">
			</pattern>
			<rect x="2.1" y="606.5" fill="url(#SVGID_9_)" width="201.4" height="72"/>
		</g>
	</mask>
	<path opacity="0.49" mask="url(#SVGID_17_)" fill="#CF514C" enable-background="new    " d="M2.1,670.7l11.4-2.3
		c30.5-7.6,58.4-30.9,87.4-30.7c38.7,0.1,44.6,42,99.1,40.8c1.2,0,2.4-0.2,3.5-0.5c-2-23.2-11.8-44.1-26.7-60.1
		c-0.5,0.1-0.9,0.2-1.5,0.5C78.9,647.5,105,592.6,37.2,610c-0.6,0.1-1.1,0.2-1.6,0.3C18.1,625.7,6,646.8,2.1,670.7"/>
	<defs>
		<filter id="Adobe_OpacityMaskFilter_3_" filterUnits="userSpaceOnUse" x="2.1" y="606.5" width="201.4" height="72">
			<feColorMatrix  type="matrix" values="1 0 0 0 0  0 1 0 0 0  0 0 1 0 0  0 0 0 1 0"/>
		</filter>
	</defs>
	<mask maskUnits="userSpaceOnUse" x="2.1" y="606.5" width="201.4" height="72" id="SVGID_19_">
		<g filter="url(#Adobe_OpacityMaskFilter_3_)">
			<pattern  id="SVGID_10_" xlink:href="#SVGID_4_" patternTransform="matrix(1.052 0 0 -1.052 802.3523 -21184.2324)">
			</pattern>
			<rect x="2.1" y="606.5" fill="url(#SVGID_10_)" width="201.4" height="72"/>
		</g>
	</mask>
	<path opacity="0.49" mask="url(#SVGID_19_)" fill="#CF514C" enable-background="new    " d="M2.1,670.7l11.4-2.3
		c30.5-7.6,58.4-30.9,87.4-30.7c38.7,0.1,44.6,42,99.1,40.8c1.2,0,2.4-0.2,3.5-0.5c-2-23.2-11.8-44.1-26.7-60.1
		c-0.5,0.1-0.9,0.2-1.5,0.5C78.9,647.5,105,592.6,37.2,610c-0.6,0.1-1.1,0.2-1.6,0.3C18.1,625.7,6,646.8,2.1,670.7"/>
	<defs>
		<filter id="Adobe_OpacityMaskFilter_4_" filterUnits="userSpaceOnUse" x="2.1" y="606.5" width="201.4" height="72">
			<feColorMatrix  type="matrix" values="1 0 0 0 0  0 1 0 0 0  0 0 1 0 0  0 0 0 1 0"/>
		</filter>
	</defs>
	<mask maskUnits="userSpaceOnUse" x="2.1" y="606.5" width="201.4" height="72" id="SVGID_21_">
		<g filter="url(#Adobe_OpacityMaskFilter_4_)">
			<pattern  id="SVGID_11_" xlink:href="#SVGID_5_" patternTransform="matrix(1.052 0 0 -1.052 802.3523 -21184.2324)">
			</pattern>
			<rect x="2.1" y="606.5" fill="url(#SVGID_11_)" width="201.4" height="72"/>
		</g>
	</mask>
	<path opacity="0.49" mask="url(#SVGID_21_)" fill="#CF514C" enable-background="new    " d="M2.1,670.7l11.4-2.3
		c30.5-7.6,58.4-30.9,87.4-30.7c38.7,0.1,44.6,42,99.1,40.8c1.2,0,2.4-0.2,3.5-0.5c-2-23.2-11.8-44.1-26.7-60.1
		c-0.5,0.1-0.9,0.2-1.5,0.5C78.9,647.5,105,592.6,37.2,610c-0.6,0.1-1.1,0.2-1.6,0.3C18.1,625.7,6,646.8,2.1,670.7"/>
	<path fill="#F79E9A" d="M2.1,670.7l11.4-2.3c30.5-7.6,58.4-30.9,87.4-30.7c38.7,0.1,44.6,42,99.1,40.8c1.2,0,2.4-0.2,3.5-0.5
		c-2-23.2-11.8-44.1-26.7-60.1c-0.5,0.1-0.9,0.2-1.5,0.5C78.9,647.5,105,592.6,37.2,610c-0.6,0.1-1.1,0.2-1.6,0.3
		C18.1,625.7,6,646.8,2.1,670.7"/>
	<defs>
		<filter id="Adobe_OpacityMaskFilter_5_" filterUnits="userSpaceOnUse" x="13.8" y="606.5" width="184.2" height="46.1">
			<feColorMatrix  type="matrix" values="1 0 0 0 0  0 1 0 0 0  0 0 1 0 0  0 0 0 1 0"/>
		</filter>
	</defs>
	<mask maskUnits="userSpaceOnUse" x="13.8" y="606.5" width="184.2" height="46.1" id="SVGID_23_">
		<g filter="url(#Adobe_OpacityMaskFilter_5_)">
			<pattern  id="SVGID_12_" xlink:href="#SVGID_6_" patternTransform="matrix(1.052 0 0 -1.052 847.8928 -21189.3926)">
			</pattern>
			<rect x="13.8" y="606.5" fill="url(#SVGID_12_)" width="184.1" height="46.1"/>
		</g>
	</mask>
	<path opacity="0.49" mask="url(#SVGID_23_)" fill="#DC7D78" enable-background="new    " d="M198,652.6h-60.9
		c-10.3-8-20.6-14.9-36.2-14.9c-16.3,0-32.1,7.2-48.3,14.9H13.8v-15.5c5.7-10.2,13.1-19.2,21.7-26.8c0.5-0.1,1-0.2,1.6-0.3
		c67.8-17.5,41.7,37.5,138.2,8.4c0.6-0.2,1-0.3,1.5-0.5C186,627.9,193.3,639.6,198,652.6"/>
	<path fill="#FCD4D1" d="M35.6,610.5c0.5-0.1,1-0.2,1.6-0.3c65.7-17,42.2,37.3,138.2,8.4c0.6-0.2,1-0.3,1.5-0.5
		c-18.5-20.1-45.1-32.7-74.5-32.7C76.9,585.4,53.5,594.9,35.6,610.5"/>
	<path fill="#FFFFFF" d="M2.1,670.7L2.1,670.7l11.4-2.3c30.5-7.6,58.4-30.9,87.4-30.7c38.7,0.1,44.6,42,99.1,40.8
		c1.2,0,2.4-0.2,3.5-0.5v0.6l-0.5,0.1c-0.9,0.1-1.9,0.3-3.1,0.3c-30,0.7-45.3-11.6-59.4-22.9c-11.6-9.3-22.4-17.9-39.7-17.9
		c-16.8,0-33.3,7.8-50.2,15.9c-12.1,5.8-24.3,11.6-37.1,14.8l0,0L2,671.3L2.1,670.7z"/>
	<path fill="none" stroke="#FFFFFF" stroke-width="2.9999" stroke-miterlimit="2.6131" d="M2.1,670.7L2.1,670.7l11.4-2.3
		c30.5-7.6,58.4-30.9,87.4-30.7c38.7,0.1,44.6,42,99.1,40.8c1.2,0,2.4-0.2,3.5-0.5v0.6l-0.5,0.1c-0.9,0.1-1.9,0.3-3.1,0.3
		c-30,0.7-45.3-11.6-59.4-22.9c-11.6-9.3-22.4-17.9-39.7-17.9c-16.8,0-33.3,7.8-50.2,15.9c-12.1,5.8-24.3,11.6-37.1,14.8l0,0
		L2,671.3L2.1,670.7z"/>
</g>
<g>
	<path fill="#ED1C24" d="M241.4,697.6l41.3-83.5h1.2l40.3,83.5H304l-5.1-11.8h-32.8l-5.2,11.8H241.4z M271.7,671.8h21.2l-10.5-25.3
		L271.7,671.8z"/>
</g>
<g>
	<path fill="#ED1C24" d="M346.5,700.2l-33.8-83.6h19.6l15.7,43.6l17-46.3h1.5l17.1,46.3l15.5-43.5H417l-33.6,83.6h-1.2L364.9,654
		l-17,46.3h-1.5v-0.1H346.5z"/>
</g>
<g>
	<path fill="#ED1C24" d="M405.3,697.6l41.3-83.5h1.2l40.3,83.5h-20.2l-5.1-11.8H430l-5.2,11.8H405.3z M435.6,671.8h21.2l-10.5-25.3
		L435.6,671.8z"/>
	<path fill="#ED1C24" d="M494.2,697.6v-80.9H544v16.7h-31V648h26.7v16.6H513v16h31.5v17.1h-50.3V697.6z"/>
	<path fill="#ED1C24" d="M559.2,697.6v-80.9h19.3v63.6H610v17.4h-50.9v-0.1H559.2z"/>
</g>
<path d="M598.7,713.1h1.5c0.2,0,0.3-0.1,0.3-0.3v-1.7c0-0.2-0.1-0.3-0.3-0.3h-1.5c-0.2,0-0.3,0.1-0.3,0.3v1.7
	C598.2,713,598.3,713.1,598.7,713.1 M600.1,714.7v1.7c0,0.2,0.1,0.3,0.3,0.3h1.5c0.2,0,0.3-0.1,0.3-0.3v-1.7c0-0.2-0.1-0.5-0.3-0.5
	h-1.5C600.4,714.2,600.1,714.4,600.1,714.7z M596.6,716.8h1.5c0.2,0,0.5-0.1,0.5-0.3v-1.7c0-0.2-0.1-0.5-0.5-0.5h-1.5
	c-0.2,0-0.3,0.1-0.3,0.5v1.7C596.3,716.7,596.4,716.8,596.6,716.8z M604.2,732.2h-1.8c-1.2,0-1.9-0.2-1.9-1.2v-9.6
	c0-0.2-0.1-0.3-0.3-0.3h-1.4c-0.2,0-0.3,0.1-0.3,0.3v9.2c0,1-0.5,1.6-1.6,1.6H595c-0.9,0-1.5-0.2-1.7-0.5c-0.2-0.2-0.2-0.5-0.2-0.8
	v-10.4c0-0.2-0.1-0.3-0.5-0.3h-1.5c-0.2,0-0.3,0.1-0.3,0.3v9.9c0,1.1-0.5,1.6-1.6,1.6l0,0h-3.7v2.1h3.7c1.2,0,2.1-0.5,2.8-1.1v0.1
	c0.8,0.8,1.8,1.1,3.3,1.1h1.5c1.1,0,2-0.3,2.7-1l0.1-0.1v0.1c0.8,0.8,1.8,1.1,3.3,1.1h1.5c2.3,0,3.7-1.5,3.7-3.7v-9.9
	c0-0.2-0.1-0.3-0.3-0.3h-1.4c-0.2,0-0.3,0.1-0.3,0.3v9.9C605.9,731.7,605.3,732.2,604.2,732.2z M577.2,738.4h-1.5
	c-0.2,0-0.3,0.1-0.3,0.3v1.4c0,0.2,0.1,0.3,0.3,0.3h1.5c3.2,0,5.1-1.9,5.1-5v-1.1h4.5v-2.1h-4.5v-11.4c0-0.2-0.1-0.5-0.5-0.5h-1.4
	c-0.2,0-0.5,0.1-0.5,0.5v14.7C580.1,737.5,579.2,738.4,577.2,738.4z M559.7,722.2c0,0.6,0.5,1,1.1,1h6.7c2.6,0,4.4,1.8,4.4,4.5v2.8
	c0,1.1-0.6,1.6-1.6,1.6h-14.5v2.1h14.5c2.3,0,3.7-1.5,3.7-3.7v-2.8c0-1.9-0.6-3.5-1.8-4.7s-2.8-1.9-4.6-1.9H562
	c0.3-3.2,2-4.9,5.1-4.9h2.5c0.2,0,0.3-0.1,0.3-0.3v-1.4c0-0.2-0.1-0.3-0.3-0.3h-2.5C562.3,714.2,559.7,717.4,559.7,722.2z
	 M547.1,716.8h1.5c0.2,0,0.5-0.1,0.5-0.3v-1.7c0-0.2-0.1-0.5-0.5-0.5h-1.5c-0.2,0-0.5,0.1-0.5,0.5v1.7
	C546.8,716.7,546.9,716.8,547.1,716.8z M543.2,716.8h1.5c0.2,0,0.3-0.1,0.3-0.3v-1.7c0-0.2-0.1-0.5-0.3-0.5h-1.5
	c-0.2,0-0.3,0.1-0.3,0.5v1.7C542.8,716.7,542.9,716.8,543.2,716.8z M557.2,732.2h-4.6V726c0-1.7-0.6-3.2-1.8-4.4s-2.7-1.8-4.4-1.8
	s-3.2,0.6-4.4,1.8c-1.2,1.2-1.8,2.7-1.8,4.4v2.1c0,1.7,0.6,3.2,1.8,4.4s2.7,1.8,4.4,1.8h10.8V732.2z M542.3,728.1V726
	c0-2.3,1.8-4.1,4.1-4.1s4.1,1.8,4.1,4.1v6.2h-4.1C544.1,732.2,542.3,730.4,542.3,728.1z M529,734v-20.6c0-0.2-0.1-0.3-0.3-0.3h-1.5
	c-0.2,0-0.3,0.1-0.3,0.3V734c0,0.2,0.1,0.3,0.3,0.3h1.5C528.9,734.3,529,734.2,529,734z M512.9,729.8h1.4c0.2,0,0.3-0.1,0.3-0.5
	v-13.6c0-0.2-0.1-0.3-0.3-0.3h-1.4c-0.2,0-0.3,0.1-0.3,0.3v13.6C512.5,729.6,512.7,729.8,512.9,729.8z M517.2,732.2h-8.7
	c-0.2,0-0.3,0.1-0.3,0.3v1.4c0,0.2,0.1,0.5,0.3,0.5h8.7c3.2,0,5-1.9,5-5v-15.9c0-0.2-0.1-0.5-0.3-0.5h-1.4c-0.2,0-0.3,0.1-0.3,0.5
	v15.8C520,731.3,519.1,732.2,517.2,732.2z M498.5,738.4h-3.1c-0.2,0-0.3,0.1-0.3,0.3v1.4c0,0.2,0.1,0.3,0.3,0.3h3.1
	c1.6,0,2.9-0.6,4.1-1.7c1.2-1.1,1.7-2.5,1.7-4.1v-8.8c0-1.7-0.6-3.2-1.8-4.4c-1.2-1.2-2.7-1.8-4.4-1.8c-1.7,0-3.2,0.6-4.4,1.8
	c-1.2,1.2-1.8,2.7-1.8,4.4v2.3c0,1.7,0.6,3.2,1.8,4.4c1.2,1.2,2.7,1.8,4.4,1.8h4.1v0.3C502.1,736.7,500.4,738.4,498.5,738.4z
	 M494,728.1v-2.3c0-2.3,1.8-4.1,4.1-4.1c2.3,0,4.1,1.8,4.1,4.1v6.3h-4.1C495.9,732.2,494,730.4,494,728.1z M488.1,734v-20.6
	c0-0.2-0.1-0.3-0.3-0.3h-1.5c-0.2,0-0.3,0.1-0.3,0.3V734c0,0.2,0.1,0.3,0.3,0.3h1.5C488,734.3,488.1,734.2,488.1,734z M477.2,732.2
	L477.2,732.2h-4.5v2.1h4.4c2.3,0,3.7-1.5,3.7-3.7v-9.9c0-0.2-0.1-0.5-0.5-0.5H479c-0.2,0-0.5,0.1-0.5,0.5v9.9
	C478.6,731.7,478.2,732.2,477.2,732.2z M480,714.1c0.5,0,0.8,0.2,0.9,0.6l0.1,0.3c0.1,0.1,0.1,0.2,0.2,0.2h0.1l0.6-0.2
	c0.1-0.1,0.2-0.1,0.2-0.2v-0.1l-0.1-0.3c-0.3-0.9-1-1.4-2-1.4c-1.2,0-2.3,1-2.3,2.3v1.7h-0.8c-0.2,0-0.2,0.1-0.2,0.3v0.6
	c0,0.2,0.1,0.2,0.2,0.2h5c0.2,0,0.2-0.1,0.2-0.2v-0.6c0-0.2-0.1-0.3-0.2-0.3h-3.1v-1.8C479,714.5,479.4,714.1,480,714.1z
	 M458.9,733.2v-7c0-0.2-0.1-0.3-0.3-0.3h-1.4c-0.2,0-0.3,0.1-0.3,0.3v7c0,1.8,0.6,3.3,1.8,4.5s2.8,1.9,4.5,1.9
	c1.6,0,2.9-0.5,4.1-1.5c1.1-1,1.9-2.3,2.1-3.7h4.5v-2.1h-4.4v-18.8c0-0.2-0.1-0.5-0.5-0.5h-1.4c-0.2,0-0.3,0.1-0.3,0.5v19.7
	c0,1.1-0.5,2.1-1.2,3.1c-0.8,0.8-1.8,1.2-2.9,1.2C460.8,737.4,458.9,735.5,458.9,733.2z M441.9,732.2L441.9,732.2h-3.5v2.1h3.4
	c2.3,0,3.7-1.5,3.7-3.7v-17.2c0-0.2-0.1-0.5-0.3-0.5h-1.4c-0.2,0-0.3,0.1-0.3,0.5v17.2C443.5,731.7,443,732.2,441.9,732.2z
	 M427.9,715.5h-1.4c-0.2,0-0.3,0.1-0.3,0.5v13.5c0,0.2,0.1,0.3,0.3,0.3h1.4c0.2,0,0.3-0.1,0.3-0.3v-13.6
	C428.3,715.6,428.2,715.5,427.9,715.5z M435.8,730.6v-17.1c0-0.2-0.1-0.5-0.3-0.5H434c-0.2,0-0.3,0.1-0.3,0.5v15.8
	c0,1.9-0.9,2.8-2.8,2.8h-8.7c-0.2,0-0.3,0.1-0.3,0.3v1.4c0,0.2,0.1,0.3,0.3,0.3h8.7c1.7,0,3.1-0.6,4-1.6c0.1,0.2,0.2,0.3,0.3,0.5
	c0.8,0.8,1.8,1.1,3.1,1.1h1V732h-1.4C436.7,732.2,435.8,731.7,435.8,730.6z M407.5,729.1v-3.2c0-2.3,1.8-4.1,4.1-4.1
	c1.6,0,3.2,1,3.5,2.3l0.1,0.7c0,0.2,0.1,0.3,0.3,0.3h0.1l1.4-0.3c0.2-0.1,0.3-0.1,0.3-0.3c0-0.1,0-0.1,0-0.1l-0.1-0.7
	c-0.2-1.1-0.9-2-2-2.8c-1-0.8-2.3-1.1-3.6-1.1c-1.7,0-3.2,0.6-4.4,1.8c-1.2,1.2-1.8,2.7-1.8,4.4v3.2c0,1.1,0.3,2.1,0.9,3.1h-5.8v2.1
	h17.1c0.2,0,0.3-0.1,0.3-0.3v-1.4c0-0.2-0.1-0.3-0.3-0.3h-7.5C408.6,732.2,407.5,730.7,407.5,729.1z M398.1,716.8h1.5
	c0.2,0,0.5-0.1,0.5-0.3v-1.7c0-0.2-0.1-0.5-0.5-0.5h-1.5c-0.2,0-0.3,0.1-0.3,0.5v1.7C397.6,716.7,397.7,716.8,398.1,716.8z
	 M394.1,716.8h1.5c0.2,0,0.3-0.1,0.3-0.3v-1.7c0-0.2-0.1-0.5-0.3-0.5h-1.5c-0.2,0-0.5,0.1-0.5,0.5v1.7
	C393.6,716.7,393.9,716.8,394.1,716.8z M394.2,732.2h-5.1v2.1h5.1c1.1,0,2-0.3,2.7-1l0.1-0.1c0,0,0,0,0,0.1c0.7,0.7,1.8,1.1,3.3,1.1
	h1v-2.1H400c-0.9,0-1.5-0.2-1.7-0.5c-0.2-0.2-0.2-0.5-0.2-0.8v-10.3c0-0.2-0.1-0.5-0.3-0.5h-1.4c-0.2,0-0.3,0.1-0.3,0.5v9.9
	C395.7,731.6,395.2,732.2,394.2,732.2z M385.7,731c0.5-0.9,0.7-1.8,0.7-2.9V726c0-1.7-0.6-3.2-1.8-4.4c-1.2-1.2-2.7-1.8-4.4-1.8
	s-3.2,0.6-4.4,1.8c-1.2,1.2-1.8,2.7-1.8,4.4v6.2h-5.1v2.1h11.3c1.6,0,3.1-0.6,4.3-1.7c0.8,1.1,2,1.7,3.5,1.7h1.8v-2.1h-2.3
	C386.6,732.2,385.8,731.8,385.7,731z M380.2,721.9c2.3,0,4.1,1.8,4.1,4.1v2.1c0,2.3-1.8,4.1-4.1,4.1h-4.1V726
	C376.1,723.7,377.9,721.9,380.2,721.9z M366.5,730.6v-17.2c0-0.2-0.1-0.5-0.3-0.5h-1.4c-0.2,0-0.3,0.1-0.3,0.5v17.2
	c0,2.3,1.5,3.7,3.7,3.7h1.4v-2.1h-1.5C367.1,732.2,366.5,731.7,366.5,730.6z M357.6,725.1v4.7c0,1.9-0.9,2.5-2.9,2.5h-6.3
	c-0.2,0-0.3,0.1-0.3,0.3v1.4c0,0.2,0.1,0.3,0.3,0.3h6.3c3.2,0,5.1-1.6,5.1-4.6V725c0-1.5-0.6-2.7-1.6-3.7s-2.3-1.6-3.7-1.6
	c-1.7,0-3.1,0.3-4.1,1.1l-0.6,0.3c-0.1,0.1-0.1,0.1-0.1,0.2v0.1c0,0.1,0,0.1,0.1,0.2l0.8,1.1c0.1,0.1,0.1,0.1,0.2,0.1l0,0
	c0.1,0,0.2,0,0.2-0.1l0.6-0.5c0.6-0.5,1.6-0.7,2.8-0.7C356.1,721.9,357.6,723.2,357.6,725.1z M331.1,738.4H328
	c-0.2,0-0.3,0.1-0.3,0.3v1.4c0,0.2,0.1,0.3,0.3,0.3h3.1c1.6,0,2.9-0.6,4.1-1.7c1.1-1.1,1.7-2.5,1.7-4.1v-8.8c0-1.7-0.6-3.2-1.8-4.4
	c-1.2-1.2-2.7-1.8-4.4-1.8c-1.7,0-3.2,0.6-4.4,1.8c-1.2,1.2-1.8,2.7-1.8,4.4v2.3c0,1.7,0.6,3.2,1.8,4.4c1.2,1.2,2.7,1.8,4.4,1.8h4.1
	v0.3C334.8,736.7,333.1,738.4,331.1,738.4z M326.6,728.1v-2.3c0-2.3,1.8-4.1,4.1-4.1c2.3,0,4.1,1.8,4.1,4.1v6.3h-4.1
	C328.5,732.2,326.6,730.4,326.6,728.1z M320.7,734v-20.6c0-0.2-0.1-0.3-0.3-0.3h-1.5c-0.2,0-0.3,0.1-0.3,0.3V734
	c0,0.2,0.1,0.3,0.3,0.3h1.5C320.6,734.3,320.7,734.2,320.7,734z M310.1,732.2L310.1,732.2h-3.5v2.1h3.4c2.3,0,3.7-1.5,3.7-3.7v-17.2
	c0-0.2-0.1-0.5-0.3-0.5H312c-0.2,0-0.3,0.1-0.3,0.5v17.2C311.7,731.7,311.3,732.2,310.1,732.2z M304.1,716.8h1.5
	c0.2,0,0.5-0.1,0.5-0.3v-1.7c0-0.2-0.1-0.5-0.5-0.5h-1.5c-0.2,0-0.3,0.1-0.3,0.5v1.7C303.8,716.7,303.9,716.8,304.1,716.8z
	 M300.3,716.8h1.5c0.2,0,0.3-0.1,0.3-0.3v-1.7c0-0.2-0.1-0.5-0.3-0.5h-1.5c-0.2,0-0.5,0.1-0.5,0.5v1.7
	C299.8,716.7,300,716.8,300.3,716.8z M300.3,732.2h-5.1v2.1h5.1c1.1,0,2-0.3,2.7-1l0.1-0.1c0,0,0,0,0,0.1c0.7,0.7,1.8,1.1,3.3,1.1h1
	v-2.1H306c-0.9,0-1.5-0.2-1.7-0.5c-0.2-0.2-0.2-0.5-0.2-0.8v-10.3c0-0.2-0.1-0.5-0.3-0.5h-1.4c-0.2,0-0.3,0.1-0.3,0.5v9.9
	C301.9,731.6,301.4,732.2,300.3,732.2z M285.9,738.4h-3.1c-0.2,0-0.3,0.1-0.3,0.3v1.4c0,0.2,0.1,0.3,0.3,0.3h3.1
	c1.6,0,2.9-0.6,4.1-1.7c1.2-1.1,1.7-2.5,1.7-4.1v-0.3h4.4v-2.1h-4.4v-6.3c0-1.7-0.6-3.2-1.8-4.4c-1.2-1.2-2.7-1.8-4.4-1.8
	s-3.2,0.6-4.4,1.8c-1.2,1.2-1.8,2.7-1.8,4.4v2.3c0,1.7,0.6,3.2,1.8,4.4c1.2,1.2,2.7,1.8,4.4,1.8h4.1v0.3
	C289.6,736.7,288,738.4,285.9,738.4z M281.5,728.1v-2.3c0-2.3,1.8-4.1,4.1-4.1c2.3,0,4.1,1.8,4.1,4.1v6.3h-4.1
	C283.3,732.2,281.5,730.4,281.5,728.1z M270.8,732.2h-5v2.1h5.1c2.1,0,3.6-1.6,3.6-3.7v-9.9c0-0.2-0.1-0.5-0.5-0.5h-1.4
	c-0.2,0-0.3,0.1-0.3,0.5v9.9C272.3,731.6,271.8,732.2,270.8,732.2z M272.6,713.1h1.5c0.2,0,0.5-0.1,0.5-0.3v-1.7
	c0-0.2-0.1-0.3-0.5-0.3h-1.5c-0.2,0-0.3,0.1-0.3,0.3v1.7C272.3,713,272.4,713.1,272.6,713.1z M276.1,714.2h-1.5
	c-0.2,0-0.5,0.1-0.5,0.5v1.7c0,0.2,0.1,0.3,0.5,0.3h1.5c0.2,0,0.5-0.1,0.5-0.3v-1.7C276.4,714.4,276.3,714.2,276.1,714.2z
	 M270.7,716.8h1.5c0.2,0,0.3-0.1,0.3-0.3v-1.7c0-0.2-0.1-0.5-0.3-0.5h-1.5c-0.2,0-0.5,0.1-0.5,0.5v1.7
	C270.3,716.7,270.5,716.8,270.7,716.8z M263.4,737.1H262c-0.2,0-0.5,0.1-0.5,0.5v1.7c0,0.2,0.1,0.5,0.5,0.5h1.5
	c0.2,0,0.5-0.1,0.5-0.5v-1.7C263.8,737.3,263.7,737.1,263.4,737.1z M259.5,737.1H258c-0.2,0-0.3,0.1-0.3,0.5v1.7
	c0,0.2,0.1,0.5,0.3,0.5h1.5c0.2,0,0.3-0.1,0.3-0.5v-1.7C259.8,737.3,259.7,737.1,259.5,737.1z M259.5,732.2H255v2.1h4.4
	c1.1,0,2-0.3,2.7-1l0.1-0.1c0,0,0,0,0.1,0.1c0.7,0.7,1.8,1.1,3.3,1.1h1v-2.1h-1.4c-0.9,0-1.5-0.2-1.7-0.5c-0.2-0.2-0.2-0.5-0.2-0.8
	v-10.3c0-0.2-0.1-0.5-0.5-0.5h-1.4c-0.2,0-0.5,0.1-0.5,0.5v9.9C261,731.7,260.5,732.2,259.5,732.2z M246.3,716.8h1.5
	c0.2,0,0.3-0.1,0.3-0.3v-1.7c0-0.2-0.1-0.5-0.3-0.5h-1.5c-0.2,0-0.5,0.1-0.5,0.5v1.7C245.8,716.7,245.9,716.8,246.3,716.8z
	 M242.3,716.8h1.5c0.2,0,0.5-0.1,0.5-0.3v-1.7c0-0.2-0.1-0.5-0.5-0.5h-1.5c-0.2,0-0.5,0.1-0.5,0.5v1.7
	C241.9,716.7,242.1,716.8,242.3,716.8z M245.5,738.2h-6.1c-2.3,0-4.2-1.9-4.2-4.2v-4.6c0-0.2-0.1-0.5-0.5-0.5h-1.4
	c-0.2,0-0.3,0.1-0.3,0.5v4.6c0,1.8,0.6,3.3,1.8,4.5s2.7,1.9,4.5,1.9h6.1c1.6,0,2.9-0.6,4.1-1.7c1.2-1.1,1.7-2.5,1.7-4.1v-0.3h4.9
	v-2.1h-4.9v-6.1c0-1.8-0.6-3.3-1.8-4.5s-2.7-1.8-4.4-1.8s-3.2,0.6-4.4,1.8s-1.8,2.7-1.8,4.4v2.3c0,1.7,0.6,3.2,1.8,4.4
	s2.7,1.8,4.4,1.8h4.1v0.1C249.2,736.5,247.5,738.2,245.5,738.2z M241.1,728.1v-2.3c0-2.3,1.8-4.1,4.1-4.1s4.1,1.9,4.1,4.2v6.1h-4.1
	C242.9,732.2,241.1,730.4,241.1,728.1z"/>
<g>
	<path fill="#CE181F" d="M234.3,744.6c1,0,1.8,0.3,2.5,1s1,1.5,1,2.5v8.6c0,0.1-0.1,0.2-0.2,0.2h-0.8c-0.1,0-0.2-0.1-0.2-0.2v-4.6
		H232v4.6c0,0.1-0.1,0.2-0.2,0.2H231c-0.1,0-0.2-0.1-0.2-0.2v-8.6c0-1,0.3-1.8,1-2.5S233.3,744.6,234.3,744.6z M236.5,750.8v-2.7
		c0-0.6-0.2-1.1-0.7-1.6s-1-0.7-1.6-0.7c-0.7,0-1.1,0.2-1.6,0.7s-0.7,1-0.7,1.6v2.7H236.5z"/>
	<path fill="#CE181F" d="M250.1,748.5c0.1,0,0.2,0.1,0.2,0.2v5.3c0,0.8-0.2,1.5-0.8,2s-1.2,0.8-2,0.8c-1,0-1.8-0.2-2.3-0.7
		c-0.5,0.5-1.2,0.7-2.3,0.7c-0.8,0-1.5-0.3-2-0.8c-0.6-0.6-0.9-1.2-0.9-2v-5.3c0-0.1,0.1-0.2,0.2-0.2h0.8c0.1,0,0.2,0.1,0.2,0.2v5.3
		c0,0.5,0.1,0.9,0.5,1.1c0.3,0.3,0.7,0.5,1.1,0.5c0.7,0,1.2-0.1,1.5-0.3c0.1-0.1,0.2-0.3,0.2-0.6v-6c0-0.1,0.1-0.2,0.2-0.2h0.8
		c0.1,0,0.2,0.1,0.2,0.2v6c0,0.2,0.1,0.5,0.2,0.6c0.2,0.2,0.7,0.3,1.5,0.3c0.5,0,0.9-0.1,1.1-0.5c0.3-0.3,0.5-0.7,0.5-1.1v-5.3
		c0-0.1,0.1-0.2,0.2-0.2H250.1z"/>
	<path fill="#CE181F" d="M259.6,756.7c0,0.1-0.1,0.2-0.2,0.2h-0.8c-0.1,0-0.2-0.1-0.2-0.2V756c-0.7,0.6-1.5,0.9-2.4,0.9
		c-1,0-1.8-0.3-2.5-1s-1-1.6-1-2.5v-1.2c0-1,0.3-1.8,1-2.5s1.6-1,2.5-1c1,0,1.8,0.3,2.5,1s1,1.5,1.1,2.4V756.7z M256.1,755.7
		c0.7,0,1.2-0.2,1.7-0.7s0.7-1,0.7-1.7v-1.2c0-0.7-0.2-1.2-0.7-1.7s-1-0.7-1.7-0.7s-1.2,0.2-1.7,0.7s-0.7,1-0.7,1.7v1.2
		c0,0.7,0.2,1.2,0.7,1.7C254.9,755.3,255.4,755.7,256.1,755.7z"/>
	<path fill="#CE181F" d="M262.9,755.8c-0.7-0.7-1-1.6-1-2.5v-1.2c0-1,0.3-1.8,1-2.5s1.6-1,2.5-1s1.8,0.3,2.5,1s1,1.6,1,2.5v0.5
		c0,0.2-0.1,0.3-0.2,0.5c-0.1,0.1-0.2,0.2-0.5,0.2h-5.3v0.2c0,0.7,0.2,1.2,0.7,1.7s1,0.7,1.7,0.7c0.9,0,1.6-0.5,2-1.2
		c0-0.1,0.1-0.1,0.2-0.1h0.1l0.7,0.3c0.1,0,0.1,0.1,0.1,0.1s0,0,0,0.1v0.1c-0.3,0.6-0.8,1-1.4,1.4c-0.6,0.3-1.2,0.6-1.8,0.6
		C264.4,756.9,263.6,756.5,262.9,755.8z M267.7,751.8c0-0.6-0.2-1.1-0.7-1.6s-1-0.7-1.6-0.7s-1.1,0.2-1.6,0.7s-0.7,0.9-0.7,1.6
		H267.7z"/>
	<path fill="#CE181F" d="M272.6,756.7c0,0.1-0.1,0.2-0.2,0.2h-0.8c-0.1,0-0.2-0.1-0.2-0.2v-11.9c0-0.1,0.1-0.2,0.2-0.2h0.8
		c0.1,0,0.2,0.1,0.2,0.2V756.7z"/>
	<path fill="#CE181F" d="M279.9,755.8c-0.7-0.7-1-1.5-1-2.5v-5.2c0-1,0.3-1.8,1-2.5s1.5-1,2.5-1s1.8,0.3,2.5,1s1,1.5,1,2.5v0.3
		c0,0.1-0.1,0.2-0.2,0.2h-0.8c-0.1,0-0.2-0.1-0.2-0.2v-0.3c0-0.7-0.2-1.1-0.7-1.6s-1-0.7-1.6-0.7c-0.7,0-1.1,0.2-1.6,0.7
		s-0.7,1-0.7,1.6v5.2c0,0.7,0.2,1.1,0.7,1.6s1,0.7,1.6,0.7s1.1-0.2,1.6-0.7s0.7-1,0.7-1.6V753c0-0.1,0.1-0.2,0.2-0.2h0.8
		c0.1,0,0.2,0.1,0.2,0.2v0.3c0,1-0.3,1.8-1,2.5s-1.5,1-2.5,1C281.5,756.9,280.6,756.6,279.9,755.8z"/>
	<path fill="#CE181F" d="M289.2,755.8c-0.7-0.7-1-1.6-1-2.5v-1.2c0-1,0.3-1.8,1-2.5s1.6-1,2.5-1s1.8,0.3,2.5,1s1,1.6,1,2.5v1.2
		c0,1-0.3,1.8-1,2.5s-1.6,1-2.5,1S289.9,756.5,289.2,755.8z M290,750.4c-0.5,0.5-0.7,1-0.7,1.7v1.2c0,0.7,0.2,1.2,0.7,1.7
		s1,0.7,1.7,0.7s1.2-0.2,1.7-0.7s0.7-1,0.7-1.7v-1.2c0-0.7-0.2-1.2-0.7-1.7s-1-0.7-1.7-0.7S290.5,749.9,290,750.4z"/>
	<path fill="#CE181F" d="M304.9,748.5c0.8,0,1.5,0.3,2,0.9c0.6,0.6,0.9,1.2,0.9,2v5.3c0,0.1-0.1,0.2-0.2,0.2h-0.8
		c-0.1,0-0.2-0.1-0.2-0.2v-5.4c0-0.5-0.1-0.8-0.5-1.1c-0.4-0.3-0.7-0.5-1.1-0.5c-0.7,0-1.2,0.1-1.5,0.3c-0.1,0.1-0.2,0.3-0.2,0.7v6
		c0,0.1-0.1,0.2-0.2,0.2h-0.8c-0.1,0-0.2-0.1-0.2-0.2v-6c0-0.3-0.1-0.5-0.2-0.7c-0.2-0.2-0.7-0.3-1.5-0.3c-0.5,0-0.9,0.1-1.1,0.5
		c-0.3,0.3-0.5,0.7-0.5,1.1v5.3c0,0.1-0.1,0.2-0.2,0.2h-0.8c-0.1,0-0.2-0.1-0.2-0.2v-5.3c0-0.8,0.3-1.5,0.9-2c0.6-0.6,1.2-0.9,2-0.9
		c1,0,1.8,0.2,2.3,0.7C303.1,748.7,303.9,748.5,304.9,748.5z"/>
	<path fill="#CE181F" d="M313.6,748.5c1,0,1.8,0.3,2.5,1s1,1.6,1,2.5v1.2c0,1-0.3,1.8-1,2.5s-1.6,1-2.5,1s-1.7-0.3-2.4-0.9v3.5
		c0,0.1-0.1,0.2-0.2,0.2h-0.8c-0.1,0-0.2-0.1-0.2-0.2v-7.7l0,0c0-0.9,0.5-1.8,1.1-2.5C311.8,748.8,312.6,748.5,313.6,748.5z
		 M315.9,752c0-0.7-0.2-1.2-0.7-1.7s-1-0.7-1.7-0.7s-1.2,0.2-1.7,0.7s-0.7,1-0.7,1.7v1.2c0,0.7,0.2,1.2,0.7,1.7s1,0.7,1.7,0.7
		s1.2-0.2,1.7-0.7s0.7-1,0.7-1.7V752z"/>
	<path fill="#CE181F" d="M326.5,756.7c0,0.1-0.1,0.2-0.2,0.2h-0.8c-0.1,0-0.2-0.1-0.2-0.2V756c-0.7,0.6-1.5,0.9-2.4,0.9
		c-1,0-1.8-0.3-2.5-1s-1-1.6-1-2.5v-1.2c0-1,0.3-1.8,1-2.5s1.6-1,2.5-1c1,0,1.8,0.3,2.5,1s1,1.5,1.1,2.4V756.7z M322.9,755.7
		c0.7,0,1.2-0.2,1.7-0.7s0.7-1,0.7-1.7v-1.2c0-0.7-0.2-1.2-0.7-1.7s-1-0.7-1.7-0.7s-1.2,0.2-1.7,0.7s-0.7,1-0.7,1.7v1.2
		c0,0.7,0.2,1.2,0.7,1.7C321.8,755.3,322.3,755.7,322.9,755.7z"/>
	<path fill="#CE181F" d="M335.9,756.7c0,0.1-0.1,0.2-0.2,0.2h-0.8c-0.1,0-0.2-0.1-0.2-0.2v-4.6c0-0.7-0.2-1.2-0.7-1.7
		s-1-0.7-1.7-0.7s-1.2,0.2-1.7,0.7s-0.7,1-0.7,1.7v4.6c0,0.1-0.1,0.2-0.2,0.2h-0.8c-0.1,0-0.2-0.1-0.2-0.2v-4.6c0-1,0.3-1.8,1-2.5
		s1.6-1,2.5-1c1,0,1.8,0.3,2.5,1s1,1.6,1,2.5v4.6H335.9z"/>
	<path fill="#CE181F" d="M344.9,748.5c0.1,0,0.2,0.1,0.2,0.2v7.6c0,1-0.3,1.8-1,2.5s-1.6,1-2.5,1c-1,0-1.8-0.3-2.5-1l-0.3-0.3
		l-0.1-0.1c0,0,0-0.1,0.1-0.1l0.6-0.6l0.1-0.1c0,0,0.1,0,0.1,0.1l0.3,0.2c0.5,0.5,1,0.7,1.7,0.7s1.2-0.2,1.7-0.7s0.7-1,0.7-1.7v-0.8
		c-0.7,0.6-1.5,0.9-2.4,0.9c-1,0-1.8-0.3-2.5-1s-1-1.6-1-2.5v-4c0-0.1,0.1-0.2,0.2-0.2h0.8c0.1,0,0.2,0.1,0.2,0.2v4
		c0,0.7,0.2,1.2,0.7,1.7s1,0.7,1.7,0.7s1.2-0.2,1.7-0.7s0.7-1,0.7-1.7v-4c0-0.1,0.1-0.2,0.2-0.2L344.9,748.5L344.9,748.5
		L344.9,748.5z"/>
	<path fill="#CE181F" d="M355.9,745.9c-0.5,0-0.8,0.1-1,0.5c-0.3,0.3-0.5,0.7-0.5,1v1h3.2c0.1,0,0.2,0.1,0.2,0.2v0.8
		c0,0.1-0.1,0.2-0.2,0.2h-3.2v7.1c0,0.1-0.1,0.2-0.2,0.2h-0.8c-0.1,0-0.2-0.1-0.2-0.2v-7.1h-1.4c-0.1,0-0.2-0.1-0.2-0.2v-0.8
		c0-0.1,0.1-0.2,0.2-0.2h1.4v-1c0-0.8,0.2-1.4,0.8-1.9s1.1-0.8,1.9-0.8c0.6,0,1.1,0.2,1.6,0.6l0.2,0.1c0.1,0,0.1,0.1,0.1,0.2v0.1
		l-0.5,0.7c0,0.1-0.1,0.1-0.2,0.1c0,0-0.1,0-0.1-0.1l-0.1-0.1C356.6,746,356.2,745.9,355.9,745.9z"/>
	<path fill="#CE181F" d="M361,755.8c-0.7-0.7-1-1.6-1-2.5v-1.2c0-1,0.3-1.8,1-2.5s1.6-1,2.5-1s1.8,0.3,2.5,1s1,1.6,1,2.5v1.2
		c0,1-0.3,1.8-1,2.5s-1.6,1-2.5,1S361.7,756.5,361,755.8z M361.9,750.4c-0.5,0.5-0.7,1-0.7,1.7v1.2c0,0.7,0.2,1.2,0.7,1.7
		s1,0.7,1.7,0.7s1.2-0.2,1.7-0.7s0.7-1,0.7-1.7v-1.2c0-0.7-0.2-1.2-0.7-1.7s-1-0.7-1.7-0.7S362.3,749.9,361.9,750.4z"/>
	<path fill="#CE181F" d="M370.5,756.7c0,0.1-0.1,0.2-0.2,0.2h-0.8c-0.1,0-0.2-0.1-0.2-0.2v-5.2c0-0.8,0.3-1.5,0.9-2.1
		c0.6-0.6,1.2-0.9,2.1-0.9c0.7,0,1.2,0.2,1.7,0.6c0.3,0.2,0.6,0.5,0.7,0.8l0.2,0.3l0.1,0.1c0,0.1,0,0.1-0.1,0.2l-0.7,0.5h-0.1l0,0
		c-0.1,0-0.1,0-0.1-0.1l-0.2-0.3c-0.1-0.2-0.2-0.3-0.5-0.5s-0.7-0.3-1-0.3c-0.5,0-0.9,0.2-1.2,0.6c-0.3,0.3-0.5,0.8-0.5,1.2v5.2
		h-0.1V756.7z"/>
	<path fill="#CE181F" d="M385.1,756.5l-4-11.5c0,0,0,0,0-0.1v-0.1c0-0.1,0.1-0.1,0.2-0.1h0.9c0.1,0,0.1,0,0.2,0.1l3.3,9.6l3.3-9.6
		c0-0.1,0.1-0.1,0.2-0.1h0.9c0.1,0,0.1,0,0.2,0.1v0.1c0,0,0,0,0,0.1l-4,11.5c-0.1,0.3-0.3,0.5-0.6,0.5S385.2,756.7,385.1,756.5z"/>
	<path fill="#CE181F" d="M393,755.8c-0.7-0.7-1-1.6-1-2.5v-1.2c0-1,0.3-1.8,1-2.5s1.6-1,2.5-1s1.8,0.3,2.5,1s1,1.6,1,2.5v0.5
		c0,0.2-0.1,0.3-0.2,0.5c-0.1,0.1-0.2,0.2-0.5,0.2H393v0.2c0,0.7,0.2,1.2,0.7,1.7s1,0.7,1.7,0.7c0.9,0,1.6-0.5,2-1.2
		c0-0.1,0.1-0.1,0.2-0.1h0.1l0.7,0.3c0.1,0,0.1,0.1,0.1,0.1s0,0,0,0.1v0.1c-0.3,0.6-0.8,1-1.4,1.4c-0.6,0.4-1.2,0.6-1.8,0.6
		C394.4,756.9,393.6,756.5,393,755.8z M397.8,751.8c0-0.6-0.2-1.1-0.7-1.6s-1-0.7-1.6-0.7s-1.1,0.2-1.6,0.7s-0.7,0.9-0.7,1.6H397.8z
		"/>
	<path fill="#CE181F" d="M402.5,756.7c0,0.1-0.1,0.2-0.2,0.2h-0.8c-0.1,0-0.2-0.1-0.2-0.2v-5.2c0-0.8,0.3-1.5,0.9-2.1
		c0.6-0.6,1.2-0.9,2.1-0.9c0.7,0,1.2,0.2,1.7,0.6c0.3,0.2,0.6,0.5,0.7,0.8l0.2,0.3l0.1,0.1c0,0.1,0,0.1-0.1,0.2l-0.7,0.5h-0.1l0,0
		c-0.1,0-0.1,0-0.1-0.1l-0.2-0.3c-0.1-0.2-0.2-0.3-0.5-0.5s-0.7-0.3-1-0.3c-0.5,0-0.9,0.2-1.2,0.6c-0.3,0.3-0.5,0.8-0.5,1.2v5.2
		h-0.1V756.7z"/>
	<path fill="#CE181F" d="M410.1,744.6c0.1,0,0.1,0,0.1,0.1v1.4c0,0.1,0,0.1-0.1,0.1h-1c-0.1,0-0.1,0-0.1-0.1v-1.4
		c0-0.1,0-0.1,0.1-0.1H410.1z M410,748c0.1,0,0.2,0.1,0.2,0.2v8.4c0,0.1-0.1,0.2-0.2,0.2h-0.8c-0.1,0-0.2-0.1-0.2-0.2v-8.4
		c0-0.1,0.1-0.2,0.2-0.2H410z"/>
	<path fill="#CE181F" d="M416.8,745.9c-0.5,0-0.8,0.1-1,0.5c-0.3,0.3-0.5,0.7-0.5,1v1h3.2c0.1,0,0.2,0.1,0.2,0.2v0.8
		c0,0.1-0.1,0.2-0.2,0.2h-3.2v7.1c0,0.1-0.1,0.2-0.2,0.2h-0.8c-0.1,0-0.2-0.1-0.2-0.2v-7.1h-1.4c-0.1,0-0.2-0.1-0.2-0.2v-0.8
		c0-0.1,0.1-0.2,0.2-0.2h1.4v-1c0-0.8,0.2-1.4,0.8-1.9s1.1-0.8,1.9-0.8c0.6,0,1.1,0.2,1.6,0.6l0.2,0.1c0.1,0,0.1,0.1,0.1,0.2v0.1
		l-0.5,0.7c0,0.1-0.1,0.1-0.2,0.1c0,0-0.1,0-0.1-0.1l-0.1-0.1C417.5,746,417.2,745.9,416.8,745.9z"/>
	<path fill="#CE181F" d="M422.1,744.6c0.1,0,0.1,0,0.1,0.1v1.4c0,0.1,0,0.1-0.1,0.1h-1c-0.1,0-0.1,0-0.1-0.1v-1.4
		c0-0.1,0-0.1,0.1-0.1H422.1z M422,748c0.1,0,0.2,0.1,0.2,0.2v8.4c0,0.1-0.1,0.2-0.2,0.2h-0.8c-0.1,0-0.2-0.1-0.2-0.2v-8.4
		c0-0.1,0.1-0.2,0.2-0.2H422z"/>
	<path fill="#CE181F" d="M425.5,755.8c-0.7-0.7-1-1.6-1-2.5v-1.2c0-1,0.3-1.8,1-2.5s1.6-1,2.5-1c0.7,0,1.4,0.2,1.9,0.6
		c0.6,0.3,1,0.9,1.4,1.6l0,0v0.1c0,0.1,0,0.1-0.1,0.2l-0.7,0.3h-0.1c-0.1,0-0.1,0-0.2-0.1l0,0c-0.2-0.5-0.5-0.8-0.9-1
		c-0.3-0.2-0.8-0.3-1.2-0.3c-0.7,0-1.2,0.2-1.7,0.7s-0.7,1-0.7,1.7v1.2c0,0.7,0.2,1.2,0.7,1.7s1,0.7,1.7,0.7c0.5,0,0.9-0.1,1.2-0.3
		c0.3-0.2,0.7-0.6,0.9-1l0,0c0-0.1,0.1-0.1,0.2-0.1h0.1l0.7,0.3c0.1,0,0.1,0.1,0.1,0.2v0.1l0,0c-0.3,0.7-0.7,1.1-1.4,1.6
		c-0.6,0.3-1.2,0.6-1.9,0.6C427,756.9,426.2,756.5,425.5,755.8z"/>
	<path fill="#CE181F" d="M440.9,756.7c0,0.1-0.1,0.2-0.2,0.2h-0.8c-0.1,0-0.2-0.1-0.2-0.2V756c-0.7,0.6-1.5,0.9-2.4,0.9
		c-1,0-1.8-0.3-2.5-1s-1-1.6-1-2.5v-1.2c0-1,0.3-1.8,1-2.5s1.6-1,2.5-1c1,0,1.8,0.3,2.5,1s1,1.5,1.1,2.4V756.7L440.9,756.7z
		 M437.3,755.7c0.7,0,1.2-0.2,1.7-0.7s0.7-1,0.7-1.7v-1.2c0-0.7-0.2-1.2-0.7-1.7s-1-0.7-1.7-0.7s-1.2,0.2-1.7,0.7s-0.7,1-0.7,1.7
		v1.2c0,0.7,0.2,1.2,0.7,1.7C436.1,755.3,436.7,755.7,437.3,755.7z"/>
	<path fill="#CE181F" d="M449.8,755.1c0.1,0,0.1,0.1,0.1,0.2v0.1l-0.2,0.3c-0.2,0.2-0.3,0.5-0.7,0.7c-0.5,0.3-0.9,0.5-1.5,0.5
		c-0.7,0-1.4-0.2-1.8-0.8c-0.5-0.6-0.8-1.1-0.8-1.8v-4.6h-1.6c-0.1,0-0.2-0.1-0.2-0.2v-0.8c0-0.1,0.1-0.2,0.2-0.2h1.6v-3.6
		c0-0.1,0.1-0.2,0.2-0.2h0.8c0.1,0,0.2,0.1,0.2,0.2v3.6h3.2c0.1,0,0.2,0.1,0.2,0.2v0.8c0,0.1-0.1,0.2-0.2,0.2h-3.2v4.6
		c0,0.3,0.1,0.7,0.3,0.9c0.2,0.2,0.6,0.3,0.9,0.3s0.6-0.1,0.8-0.2c0.1-0.1,0.2-0.2,0.3-0.3l0.2-0.3c0-0.1,0.1-0.1,0.2-0.1h0.1
		L449.8,755.1z"/>
	<path fill="#CE181F" d="M453,744.6c0.1,0,0.1,0,0.1,0.1v1.4c0,0.1,0,0.1-0.1,0.1h-0.9c-0.1,0-0.1,0-0.1-0.1v-1.4
		c0-0.1,0-0.1,0.1-0.1H453z M452.9,748c0.1,0,0.2,0.1,0.2,0.2v8.4c0,0.1-0.1,0.2-0.2,0.2h-0.8c-0.1,0-0.2-0.1-0.2-0.2v-8.4
		c0-0.1,0.1-0.2,0.2-0.2H452.9z"/>
	<path fill="#CE181F" d="M456.4,755.8c-0.7-0.7-1-1.6-1-2.5v-1.2c0-1,0.3-1.8,1-2.5s1.6-1,2.5-1s1.8,0.3,2.5,1s1,1.6,1,2.5v1.2
		c0,1-0.3,1.8-1,2.5s-1.6,1-2.5,1S457.1,756.5,456.4,755.8z M457.3,750.4c-0.5,0.5-0.7,1-0.7,1.7v1.2c0,0.7,0.2,1.2,0.7,1.7
		s1,0.7,1.7,0.7s1.2-0.2,1.7-0.7s0.7-1,0.7-1.7v-1.2c0-0.7-0.2-1.2-0.7-1.7s-1-0.7-1.7-0.7S457.7,749.9,457.3,750.4z"/>
	<path fill="#CE181F" d="M471.9,756.7c0,0.1-0.1,0.2-0.2,0.2h-0.8c-0.1,0-0.2-0.1-0.2-0.2v-4.6c0-0.7-0.2-1.2-0.7-1.7
		s-1-0.7-1.7-0.7s-1.2,0.2-1.7,0.7s-0.7,1-0.7,1.7v4.6c0,0.1-0.1,0.2-0.2,0.2h-0.8c-0.1,0-0.2-0.1-0.2-0.2v-4.6c0-1,0.3-1.8,1-2.5
		s1.6-1,2.5-1c1,0,1.8,0.3,2.5,1s1,1.6,1,2.5v4.6H471.9z"/>
	<path fill="#CE181F" d="M485.4,756.7c0,0.1-0.1,0.2-0.2,0.2h-0.8c-0.1,0-0.2-0.1-0.2-0.2V756c-0.7,0.6-1.5,0.9-2.4,0.9
		c-1,0-1.8-0.3-2.5-1s-1-1.6-1-2.5v-1.2c0-1,0.3-1.8,1-2.5s1.6-1,2.5-1c1,0,1.8,0.3,2.5,1s1,1.5,1.1,2.4V756.7L485.4,756.7z
		 M481.8,755.7c0.7,0,1.2-0.2,1.7-0.7s0.7-1,0.7-1.7v-1.2c0-0.7-0.2-1.2-0.7-1.7s-1-0.7-1.7-0.7s-1.2,0.2-1.7,0.7s-0.7,1-0.7,1.7
		v1.2c0,0.7,0.2,1.2,0.7,1.7C480.6,755.3,481.1,755.7,481.8,755.7z"/>
	<path fill="#CE181F" d="M494.7,756.7c0,0.1-0.1,0.2-0.2,0.2h-0.8c-0.1,0-0.2-0.1-0.2-0.2v-4.6c0-0.7-0.2-1.2-0.7-1.7
		s-1-0.7-1.7-0.7s-1.2,0.2-1.7,0.7s-0.7,1-0.7,1.7v4.6c0,0.1-0.1,0.2-0.2,0.2h-0.8c-0.1,0-0.2-0.1-0.2-0.2v-4.6c0-1,0.3-1.8,1-2.5
		s1.6-1,2.5-1c1,0,1.8,0.3,2.5,1s1,1.6,1,2.5v4.6H494.7z"/>
	<path fill="#CE181F" d="M503.8,744.6c0.1,0,0.2,0.1,0.2,0.2v8.5c0,1-0.3,1.8-1,2.5s-1.6,1-2.5,1c-1,0-1.8-0.3-2.5-1s-1-1.6-1-2.5
		v-1.2c0-1,0.3-1.8,1-2.5s1.6-1,2.5-1s1.7,0.3,2.4,0.9V745c0-0.1,0.1-0.2,0.2-0.2h0.7L503.8,744.6L503.8,744.6z M502.8,752
		c0-0.7-0.2-1.2-0.7-1.7s-1-0.7-1.7-0.7s-1.2,0.2-1.7,0.7s-0.7,1-0.7,1.7v1.2c0,0.7,0.2,1.2,0.7,1.7s1,0.7,1.7,0.7s1.2-0.2,1.7-0.7
		s0.7-1,0.7-1.7V752z"/>
	<path fill="#CE181F" d="M512.1,756.7c0,0.1-0.1,0.2-0.2,0.2h-0.8c-0.1,0-0.2-0.1-0.2-0.2v-11.9c0-0.1,0.1-0.2,0.2-0.2h0.8
		c0.1,0,0.2,0.1,0.2,0.2V756.7z"/>
	<path fill="#CE181F" d="M521.4,756.7c0,0.1-0.1,0.2-0.2,0.2h-0.8c-0.1,0-0.2-0.1-0.2-0.2v-4.6c0-0.7-0.2-1.2-0.7-1.7
		s-1-0.7-1.7-0.7s-1.2,0.2-1.7,0.7s-0.7,1-0.7,1.7v4.6c0,0.1-0.1,0.2-0.2,0.2h-0.8c-0.1,0-0.2-0.1-0.2-0.2v-4.6c0-1,0.3-1.8,1-2.5
		s1.6-1,2.5-1c1,0,1.8,0.3,2.5,1s1,1.6,1,2.5v4.6H521.4z"/>
	<path fill="#CE181F" d="M527,756.5l-3.4-7.8v-0.1v-0.1c0-0.1,0.1-0.1,0.2-0.1h0.9c0.1,0,0.1,0,0.2,0.1l2.7,6.2l2.7-6.2
		c0-0.1,0.1-0.1,0.2-0.1h0.9c0.1,0,0.1,0,0.2,0.1v0.1v0.1l-3.4,7.8c-0.1,0.2-0.3,0.3-0.6,0.3C527.6,756.8,527.1,756.7,527,756.5z"/>
	<path fill="#CE181F" d="M534.4,755.8c-0.7-0.7-1-1.6-1-2.5v-1.2c0-1,0.3-1.8,1-2.5s1.6-1,2.5-1s1.8,0.3,2.5,1s1,1.6,1,2.5v0.5
		c0,0.2-0.1,0.3-0.2,0.5s-0.2,0.2-0.5,0.2h-5.3v0.2c0,0.7,0.2,1.2,0.7,1.7s1,0.7,1.7,0.7c0.9,0,1.6-0.5,2-1.2c0-0.1,0.1-0.1,0.2-0.1
		h0.1l0.7,0.3c0.1,0,0.1,0.1,0.1,0.1s0,0,0,0.1v0.1c-0.3,0.6-0.8,1-1.4,1.4c-0.6,0.4-1.2,0.6-1.8,0.6
		C535.8,756.9,535,756.5,534.4,755.8z M539.2,751.8c0-0.6-0.2-1.1-0.7-1.6s-1-0.7-1.6-0.7s-1.1,0.2-1.6,0.7s-0.7,0.9-0.7,1.6H539.2z
		"/>
	<path fill="#CE181F" d="M545.3,756.9c-0.6,0-1.1-0.2-1.6-0.6c-0.5-0.4-0.8-0.8-0.9-1.4l0,0v-0.1c0-0.1,0-0.1,0.1-0.2l0.8-0.2
		c0,0,0,0,0.1,0h0.1l0.1,0.1l0,0c0.1,0.3,0.2,0.6,0.5,0.7c0.2,0.2,0.6,0.2,0.8,0.3h0.8c0.3,0,0.6-0.1,0.9-0.3
		c0.2-0.2,0.5-0.5,0.5-0.7c0-0.1,0.1-0.2,0.1-0.5s-0.1-0.5-0.2-0.7c-0.2-0.2-0.5-0.2-0.7-0.2h-1.8c-0.6,0-1.1-0.2-1.6-0.7
		s-0.7-0.9-0.7-1.6c0-0.2,0-0.6,0.1-0.8c0.1-0.6,0.5-1,0.9-1.4c0.5-0.3,1-0.6,1.6-0.6h0.8c0.6,0,1.1,0.2,1.6,0.6
		c0.5,0.3,0.8,0.8,0.9,1.4l0,0v0.1c0,0.1,0,0.1-0.1,0.2l-0.8,0.2h-0.1c-0.1,0-0.1,0-0.2-0.1l0,0c-0.1-0.3-0.2-0.6-0.5-0.7
		c-0.2-0.2-0.6-0.3-0.9-0.3h-0.8c-0.3,0-0.6,0.1-0.8,0.3s-0.5,0.5-0.5,0.7c0,0.1-0.1,0.2-0.1,0.5c0,0.2,0.1,0.5,0.2,0.7
		c0.2,0.2,0.5,0.2,0.7,0.2h1.8c0.6,0,1.1,0.2,1.6,0.7s0.7,0.9,0.7,1.6c0,0.2,0,0.6-0.1,0.8c-0.1,0.6-0.5,1-0.9,1.4
		c-0.5,0.3-1,0.6-1.6,0.6H545.3z"/>
	<path fill="#CE181F" d="M557.8,755.1c0.1,0,0.1,0.1,0.1,0.2v0.1l-0.2,0.3c-0.2,0.2-0.3,0.5-0.7,0.7c-0.5,0.3-0.9,0.5-1.5,0.5
		c-0.7,0-1.4-0.2-1.8-0.8s-0.8-1.1-0.8-1.8v-4.6h-1.6c-0.1,0-0.2-0.1-0.2-0.2v-0.8c0-0.1,0.1-0.2,0.2-0.2h1.6v-3.6
		c0-0.1,0.1-0.2,0.2-0.2h0.8c0.1,0,0.2,0.1,0.2,0.2v3.6h3.2c0.1,0,0.2,0.1,0.2,0.2v0.8c0,0.1-0.1,0.2-0.2,0.2h-3.2v4.6
		c0,0.3,0.1,0.7,0.3,0.9c0.2,0.2,0.6,0.3,0.9,0.3s0.6-0.1,0.8-0.2c0.1-0.1,0.2-0.2,0.3-0.3l0.2-0.3c0-0.1,0.1-0.1,0.2-0.1h0.1
		L557.8,755.1z"/>
	<path fill="#CE181F" d="M561,744.6c0.1,0,0.1,0,0.1,0.1v1.4c0,0.1,0,0.1-0.1,0.1h-1c-0.1,0-0.1,0-0.1-0.1v-1.4c0-0.1,0-0.1,0.1-0.1
		H561z M560.9,748c0.1,0,0.2,0.1,0.2,0.2v8.4c0,0.1-0.1,0.2-0.2,0.2h-0.8c-0.1,0-0.2-0.1-0.2-0.2v-8.4c0-0.1,0.1-0.2,0.2-0.2H560.9z
		"/>
	<path fill="#CE181F" d="M566.9,748.5c1,0,1.8,0.3,2.5,1s1,1.6,1,2.5v4.2l0,0c0,1-0.3,1.8-1,2.5s-1.6,1-2.5,1c-1,0-1.8-0.3-2.5-1
		l-0.3-0.3l-0.1-0.1c0,0,0-0.1,0.1-0.1l0.6-0.6l0.1-0.1l0,0c0,0,0.1,0,0.1,0.1l0.3,0.3c0.5,0.5,1,0.7,1.7,0.7s1.2-0.2,1.7-0.7
		s0.7-1,0.7-1.7v-0.8c-0.7,0.6-1.5,0.9-2.4,0.9c-1,0-1.8-0.3-2.5-1s-1-1.6-1-2.5v-0.6c0-1,0.3-1.8,1-2.5
		C565.1,748.8,565.9,748.5,566.9,748.5z M569.3,752c0-0.7-0.2-1.2-0.7-1.7s-1-0.7-1.7-0.7s-1.2,0.2-1.7,0.7s-0.7,1-0.7,1.7v0.6
		c0,0.7,0.2,1.2,0.7,1.7s1,0.7,1.7,0.7s1.2-0.2,1.7-0.7s0.7-1,0.7-1.7V752z"/>
	<path fill="#CE181F" d="M579.8,756.7c0,0.1-0.1,0.2-0.2,0.2h-0.8c-0.1,0-0.2-0.1-0.2-0.2V756c-0.7,0.6-1.5,0.9-2.4,0.9
		c-1,0-1.8-0.3-2.5-1s-1-1.6-1-2.5v-1.2c0-1,0.3-1.8,1-2.5s1.6-1,2.5-1c1,0,1.8,0.3,2.5,1s1,1.5,1.1,2.4L579.8,756.7L579.8,756.7z
		 M576.2,755.7c0.7,0,1.2-0.2,1.7-0.7s0.7-1,0.7-1.7v-1.2c0-0.7-0.2-1.2-0.7-1.7s-1-0.7-1.7-0.7s-1.2,0.2-1.7,0.7s-0.7,1-0.7,1.7
		v1.2c0,0.7,0.2,1.2,0.7,1.7C575,755.3,575.6,755.7,576.2,755.7z"/>
	<path fill="#CE181F" d="M588.7,755.1c0.1,0,0.1,0.1,0.1,0.2v0.1l-0.2,0.3c-0.2,0.2-0.3,0.5-0.7,0.7c-0.5,0.3-0.9,0.5-1.5,0.5
		c-0.7,0-1.4-0.2-1.8-0.8c-0.5-0.6-0.8-1.1-0.8-1.8v-4.6h-1.6c-0.1,0-0.2-0.1-0.2-0.2v-0.8c0-0.1,0.1-0.2,0.2-0.2h1.6v-3.6
		c0-0.1,0.1-0.2,0.2-0.2h0.8c0.1,0,0.2,0.1,0.2,0.2v3.6h3.2c0.1,0,0.2,0.1,0.2,0.2v0.8c0,0.1-0.1,0.2-0.2,0.2H585v4.6
		c0,0.3,0.1,0.7,0.3,0.9c0.2,0.2,0.6,0.3,0.9,0.3s0.6-0.1,0.8-0.2c0.1-0.1,0.2-0.2,0.3-0.3l0.2-0.3c0-0.1,0.1-0.1,0.2-0.1h0.1
		L588.7,755.1z"/>
	<path fill="#CE181F" d="M591.9,744.6c0.1,0,0.1,0,0.1,0.1v1.4c0,0.1,0,0.1-0.1,0.1h-1c-0.1,0-0.1,0-0.1-0.1v-1.4
		c0-0.1,0-0.1,0.1-0.1H591.9z M591.8,748c0.1,0,0.2,0.1,0.2,0.2v8.4c0,0.1-0.1,0.2-0.2,0.2H591c-0.1,0-0.2-0.1-0.2-0.2v-8.4
		c0-0.1,0.1-0.2,0.2-0.2H591.8z"/>
	<path fill="#CE181F" d="M595.3,755.8c-0.7-0.7-1-1.6-1-2.5v-1.2c0-1,0.3-1.8,1-2.5s1.6-1,2.5-1s1.8,0.3,2.5,1s1,1.6,1,2.5v1.2
		c0,1-0.3,1.8-1,2.5s-1.6,1-2.5,1C596.9,756.8,596,756.5,595.3,755.8z M596.2,750.4c-0.5,0.5-0.7,1-0.7,1.7v1.2
		c0,0.7,0.2,1.2,0.7,1.7s1,0.7,1.7,0.7s1.2-0.2,1.7-0.7s0.7-1,0.7-1.7v-1.2c0-0.7-0.2-1.2-0.7-1.7s-1-0.7-1.7-0.7
		C597.2,749.7,596.6,749.9,596.2,750.4z"/>
	<path fill="#CE181F" d="M610.8,756.7c0,0.1-0.1,0.2-0.2,0.2h-0.8c-0.1,0-0.2-0.1-0.2-0.2v-4.6c0-0.7-0.2-1.2-0.7-1.7
		s-1-0.7-1.7-0.7s-1.2,0.2-1.7,0.7s-0.7,1-0.7,1.7v4.6c0,0.1-0.1,0.2-0.2,0.2h-0.8c-0.1,0-0.2-0.1-0.2-0.2v-4.6c0-1,0.3-1.8,1-2.5
		s1.6-1,2.5-1c1,0,1.8,0.3,2.5,1s1,1.6,1,2.5v4.6H610.8z"/>
</g>
<rect x="-204" y="450" fill="none" width="1018.9" height="1416.8"/>
</svg>
