<?xml version="1.0" encoding="utf-8"?>
<!-- Generator: Adobe Illustrator 18.0.0, SVG Export Plug-In . SVG Version: 6.00 Build 0)  -->
<!DOCTYPE svg PUBLIC "-//W3C//DTD SVG 1.1//EN" "http://www.w3.org/Graphics/SVG/1.1/DTD/svg11.dtd" [
	<!ENTITY ns_extend "http://ns.adobe.com/Extensibility/1.0/">
	<!ENTITY ns_ai "http://ns.adobe.com/AdobeIllustrator/10.0/">
	<!ENTITY ns_graphs "http://ns.adobe.com/Graphs/1.0/">
	<!ENTITY ns_vars "http://ns.adobe.com/Variables/1.0/">
	<!ENTITY ns_imrep "http://ns.adobe.com/ImageReplacement/1.0/">
	<!ENTITY ns_sfw "http://ns.adobe.com/SaveForWeb/1.0/">
	<!ENTITY ns_custom "http://ns.adobe.com/GenericCustomNamespace/1.0/">
	<!ENTITY ns_adobe_xpath "http://ns.adobe.com/XPath/1.0/">
]>
<svg version="1.1" id="Layer_1" xmlns:x="&ns_extend;" xmlns:i="&ns_ai;" xmlns:graph="&ns_graphs;"
	 xmlns="http://www.w3.org/2000/svg" xmlns:xlink="http://www.w3.org/1999/xlink" x="0px" y="0px" viewBox="0 0 462 154.5"
	 enable-background="new 0 0 462 154.5" xml:space="preserve">
<metadata>
	<sfw  xmlns="&ns_sfw;">
		<slices></slices>
		<sliceSourceBounds  height="794" width="614" x="0" y="0" bottomLeftOrigin="true"></sliceSourceBounds>
	</sfw>
</metadata>
<pattern  x="-76.6" y="513.4" width="253.7" height="126.8" patternUnits="userSpaceOnUse" id="Unnamed_Pattern" viewBox="0 -126.8 253.7 126.8" overflow="visible">
	<g>
		<polygon fill="none" points="0,-126.8 253.7,-126.8 253.7,0 0,0 		"/>
		<g>
			<defs>
				<rect id="SVGID_1_" x="0" y="-126.8" width="253.7" height="126.8"/>
			</defs>
			<clipPath id="SVGID_2_">
				<use xlink:href="#SVGID_1_"  overflow="visible"/>
			</clipPath>
			<g transform="matrix(1 0 0 1 0 2.064538e-006)" clip-path="url(#SVGID_2_)">
				
					<image overflow="visible" width="1057" height="528" xlink:href="E445ABF0.jpg"  transform="matrix(0.24 0 0 0.2402 0 -126.8223)">
				</image>
			</g>
		</g>
	</g>
</pattern>
<pattern  x="-76.6" y="513.4" width="257.9" height="136" patternUnits="userSpaceOnUse" id="Unnamed_Pattern_2" viewBox="0 -136 257.9 136" overflow="visible">
	<g>
		<polygon fill="none" points="0,-136 257.9,-136 257.9,0 0,0 		"/>
		<g>
			<defs>
				<rect id="SVGID_3_" x="0" y="-136" width="257.9" height="136"/>
			</defs>
			<clipPath id="SVGID_4_">
				<use xlink:href="#SVGID_3_"  overflow="visible"/>
			</clipPath>
			<g transform="matrix(1 0 0 1 0 -5.751848e-006)" clip-path="url(#SVGID_4_)">
				
					<image overflow="visible" width="1075" height="567" xlink:href="E445ABF1.jpg"  transform="matrix(0.2399 0 0 0.2399 0 -136.0105)">
				</image>
			</g>
		</g>
	</g>
</pattern>
<g>
	<defs>
		<rect id="SVGID_5_" x="-76.6" y="-280.6" width="614" height="794"/>
	</defs>
	<clipPath id="SVGID_6_">
		<use xlink:href="#SVGID_5_"  overflow="visible"/>
	</clipPath>
	<g clip-path="url(#SVGID_6_)">
		<defs>
			<rect id="SVGID_7_" x="-76.6" y="-280.6" width="614" height="794"/>
		</defs>
		<clipPath id="SVGID_8_">
			<use xlink:href="#SVGID_7_"  overflow="visible"/>
		</clipPath>
		<path clip-path="url(#SVGID_8_)" fill-rule="evenodd" clip-rule="evenodd" fill="#C4161C" d="M144.5,114.4c-1,0.1-1.9,0.3-2.9,0.4
			c-0.9,0.1-1.9,0.2-2.8,0.3c-0.9,0.1-1.8,0.2-2.7,0.2c-0.9,0.1-1.7,0.1-2.6,0.2c-0.8,0-1.7,0.1-2.5,0.1c-0.8,0-1.6,0-2.4,0
			c-0.8,0-1.5,0-2.3,0c-0.7,0-1.5,0-2.2-0.1c-0.7,0-1.4-0.1-2.1-0.1c-0.7-0.1-1.3-0.1-2-0.2c-0.7-0.1-1.3-0.1-1.9-0.2v0
			c-0.6-0.1-1.2-0.2-1.8-0.3c-0.6-0.1-1.2-0.2-1.8-0.3c-0.6-0.1-1.1-0.2-1.7-0.3c-0.6-0.1-1.1-0.2-1.6-0.4c-0.5-0.1-1.1-0.3-1.6-0.4
			c-0.5-0.1-1-0.3-1.5-0.4c-0.5-0.1-1-0.3-1.5-0.4c-0.5-0.2-1-0.3-1.4-0.5c-0.5-0.2-0.9-0.3-1.4-0.5c-0.5-0.2-0.9-0.3-1.4-0.5
			c-0.4-0.2-0.9-0.3-1.3-0.5c-0.4-0.2-0.9-0.3-1.3-0.5c-0.4-0.2-0.9-0.3-1.3-0.5h0c-0.4-0.2-0.8-0.3-1.3-0.5l-1.2-0.5
			c-0.4-0.2-0.8-0.3-1.2-0.5c-0.4-0.2-0.8-0.3-1.2-0.5c-0.4-0.2-0.8-0.3-1.2-0.5c-0.4-0.2-0.8-0.3-1.2-0.5c-0.4-0.1-0.8-0.3-1.2-0.4
			c-0.4-0.1-0.8-0.3-1.2-0.4h0c-0.4-0.1-0.8-0.3-1.2-0.4c-0.4-0.1-0.8-0.2-1.3-0.4c-0.4-0.1-0.8-0.2-1.3-0.3
			c-0.4-0.1-0.9-0.2-1.3-0.3c-0.4-0.1-0.9-0.2-1.3-0.2c-0.4-0.1-0.9-0.1-1.4-0.2s-0.9-0.1-1.4-0.2c-0.5,0-1-0.1-1.4-0.1v0
			c-0.5,0-1,0-1.5-0.1c-1,0-2.1,0-3.1,0.1c-0.5,0-1.1,0.1-1.7,0.1c-0.6,0.1-1.1,0.1-1.7,0.2c-0.6,0.1-1.2,0.2-1.8,0.3
			c-0.6,0.1-1.2,0.2-1.9,0.3s-1.3,0.3-1.9,0.4c-0.7,0.1-1.3,0.3-2,0.5c-0.7,0.2-1.4,0.4-2.1,0.6c-0.7,0.2-1.4,0.4-2.2,0.7
			c-0.7,0.2-1.5,0.5-2.3,0.7c-0.8,0.3-1.6,0.5-2.4,0.8c-0.8,0.3-1.6,0.6-2.5,0.9c-0.8,0.3-1.7,0.7-2.6,1c-0.9,0.4-1.8,0.7-2.7,1.1
			c-0.9,0.4-1.8,0.8-2.8,1.2c-0.9,0.4-1.9,0.9-2.9,1.4c-1,0.5-2,1-3,1.5c-1,0.5-2.1,1-3.2,1.6c-1.1,0.5-2.2,1.1-3.3,1.7
			c-1.1,0.6-2.3,1.2-3.4,1.8c-1.2,0.6-2.3,1.3-3.6,1.9c-1.2,0.7-2.4,1.4-3.7,2.1c1.8,2.3,3.7,4.4,5.8,6.5
			c13.5,13.5,32.2,21.9,52.9,21.9c20.7,0,39.4-8.4,52.9-21.9C136.9,126.2,141.1,120.6,144.5,114.4"/>
		<defs>
			<filter id="Adobe_OpacityMaskFilter" filterUnits="userSpaceOnUse" x="5.1" y="78.2" width="147.5" height="74.1">
				<feColorMatrix  type="matrix" values="1 0 0 0 0  0 1 0 0 0  0 0 1 0 0  0 0 0 1 0"/>
			</filter>
		</defs>
		<mask maskUnits="userSpaceOnUse" x="5.1" y="78.2" width="147.5" height="74.1" id="SVGID_9_">
			<g filter="url(#Adobe_OpacityMaskFilter)">
				<g>
					<defs>
						<rect id="SVGID_10_" x="5.1" y="78.2" width="147.5" height="74.1"/>
					</defs>
					<clipPath id="SVGID_11_" clip-path="url(#SVGID_8_)">
						<use xlink:href="#SVGID_10_"  overflow="visible"/>
					</clipPath>
					<rect x="4.5" y="75.2" clip-path="url(#SVGID_11_)" width="148.2" height="78.8"/>
					<g enable-background="new    ">
						
							<pattern  id="SVGID_12_" xlink:href="#Unnamed_Pattern" patternTransform="matrix(0.7993 0 0 0.7993 69.0462 -684.656)"  enable-background="new    ">
						</pattern>
						
							<rect x="5.1" y="78.2" clip-path="url(#SVGID_11_)" fill-rule="evenodd" clip-rule="evenodd" fill="url(#SVGID_12_)" width="147.5" height="74.1"/>
					</g>
				</g>
			</g>
		</mask>
		<g opacity="0.49" clip-path="url(#SVGID_8_)" mask="url(#SVGID_9_)">
			<g>
				<defs>
					<rect id="SVGID_13_" x="5.1" y="78.2" width="147.5" height="74.1"/>
				</defs>
				<clipPath id="SVGID_14_">
					<use xlink:href="#SVGID_13_"  overflow="visible"/>
				</clipPath>
				<path clip-path="url(#SVGID_14_)" fill-rule="evenodd" clip-rule="evenodd" d="M151.4,78.4c0.3,4.3,1.2-3.2,1.2,1.3
					c0,15.3-3.6,27.9-10.9,39.4c-8.3,13.1-21.3,22.2-36.5,28.2c-18.1,6.8-36.8,6.8-54.7-0.1c-22.2-9.6-39.2-31-45.4-55.1
					c-0.7-2.6,9.6-12,34.8-8.3c19.9,3,25.8,21.4,71.9,18C135.1,100.1,151.4,78.3,151.4,78.4"/>
			</g>
		</g>
		<path clip-path="url(#SVGID_8_)" fill-rule="evenodd" clip-rule="evenodd" fill="#ED1C24" d="M4.3,82.3L4.3,82.3l0,0.2L4.3,82.3z
			 M20.3,124.7c80.3-45.7,61.3-1.3,124.2-10.3c5.9-10.7,9.3-23,9.3-36.1c0-1,0-3.9-0.1-4.9c-1.6,0.8-3.3,1.7-5,2.5
			c-9.8,5.3-19.1,11.7-29.2,16.4c-18.3,9.7-32.6,5.2-50.8-6.3c-0.2-0.1-0.3-0.2-0.5-0.3c-1.4-0.9-2.3-1.5-4-2.4
			c-32.1-18.3-43.5-1.7-60-0.7C5.2,98.4,11,113,20.3,124.7"/>
		<defs>
			<filter id="Adobe_OpacityMaskFilter_1_" filterUnits="userSpaceOnUse" x="4.2" y="65.1" width="149.5" height="61.3">
				<feColorMatrix  type="matrix" values="1 0 0 0 0  0 1 0 0 0  0 0 1 0 0  0 0 0 1 0"/>
			</filter>
		</defs>
		<mask maskUnits="userSpaceOnUse" x="4.2" y="65.1" width="149.5" height="61.3" id="SVGID_15_">
			<g filter="url(#Adobe_OpacityMaskFilter_1_)">
				<g>
					<defs>
						<rect id="SVGID_16_" x="4.2" y="65.1" width="149.5" height="61.3"/>
					</defs>
					<clipPath id="SVGID_17_" clip-path="url(#SVGID_8_)">
						<use xlink:href="#SVGID_16_"  overflow="visible"/>
					</clipPath>
					<rect x="2" y="62.1" clip-path="url(#SVGID_17_)" width="151.8" height="64.3"/>
					<g enable-background="new    ">
						
							<pattern  id="SVGID_18_" xlink:href="#Unnamed_Pattern_2" patternTransform="matrix(0.7993 0 0 0.7993 67.7557 -710.7198)"  enable-background="new    ">
						</pattern>
						
							<rect x="4.2" y="65.1" clip-path="url(#SVGID_17_)" fill-rule="evenodd" clip-rule="evenodd" fill="url(#SVGID_18_)" width="149.5" height="61.3"/>
					</g>
				</g>
			</g>
		</mask>
		<g opacity="0.49" clip-path="url(#SVGID_8_)" mask="url(#SVGID_15_)">
			<g>
				<defs>
					<rect id="SVGID_19_" x="4.2" y="65.1" width="149.5" height="61.3"/>
				</defs>
				<clipPath id="SVGID_20_">
					<use xlink:href="#SVGID_19_"  overflow="visible"/>
				</clipPath>
				<path clip-path="url(#SVGID_20_)" fill-rule="evenodd" clip-rule="evenodd" fill="#620000" d="M153.8,73.4
					c0,15.7-3.6,34-16.6,52c-58,0.2-36.9-25-115.4,1C8.1,110.1,2,88.5,5,67.6c0,0,23.9-5.5,44.1-0.2C65.6,71.7,76.7,86.9,95,87.5
					C128.1,88.6,153.8,72.5,153.8,73.4"/>
			</g>
		</g>
		<path clip-path="url(#SVGID_8_)" fill-rule="evenodd" clip-rule="evenodd" fill="#F26D6A" d="M118.6,62.5
			c-0.1-0.1-0.2-0.1-0.2-0.2C118.4,62.4,118.5,62.5,118.6,62.5 M120.4,63.7c-0.1,0-0.1-0.1-0.2-0.1
			C120.2,63.6,120.3,63.6,120.4,63.7 M123.4,65.4c-0.1-0.1-0.2-0.1-0.3-0.1C123.2,65.3,123.3,65.4,123.4,65.4 M124,65.7
			c-0.1,0-0.2-0.1-0.3-0.1C123.8,65.6,123.9,65.7,124,65.7 M124.6,66.1l-0.2-0.1C124.4,66,124.5,66,124.6,66.1 M125.2,66.4
			c-0.1,0-0.2-0.1-0.2-0.1C125.1,66.3,125.1,66.4,125.2,66.4 M125.9,66.7c-0.1,0-0.2-0.1-0.2-0.1C125.7,66.7,125.8,66.7,125.9,66.7
			 M126.6,67c-0.1,0-0.2-0.1-0.3-0.1C126.4,66.9,126.5,67,126.6,67 M127.1,67.3c-0.1,0-0.1-0.1-0.2-0.1
			C127,67.2,127.1,67.3,127.1,67.3 M128.5,67.9c-0.1,0-0.1-0.1-0.2-0.1C128.4,67.9,128.5,67.9,128.5,67.9 M129.1,68.1L129.1,68.1
			L129.1,68.1L129.1,68.1z M4.3,82.5c16.4-0.9,27.9-17.6,60,0.7c1.7,1,2.5,1.5,4,2.4c18.4,11.8,32.8,16.4,51.3,6.6
			c11.8-5.4,22.5-13.2,34.1-18.9c-0.2,0-0.3,0-0.5,0c-11.4,0.3-20.1-2-27.2-5.3c-7.1-3.4-12.8-7.8-18.2-12.1
			c-4.4-3.5-8.6-6.9-13.4-9.4c-4.7-2.5-10-4.1-16.5-4.1c-6.3,0-12.6,1.5-18.9,3.7c-6.3,2.3-12.7,5.3-19,8.4l0,0
			c-9.2,4.4-18.5,8.9-28.2,11.3l0,0L5,67.1c-0.5,3.7-0.8,7.4-0.8,11.2C4.2,79.7,4.2,81.1,4.3,82.5"/>
		<path clip-path="url(#SVGID_8_)" fill-rule="evenodd" clip-rule="evenodd" fill="#F69896" d="M32.1,20L32.1,20L32.1,20L32.1,20z
			 M153.6,72.2c-1.2-15.2-7-29.1-15.9-40.3c-1.3-1.6-2.6-3.2-4-4.7c-5.5,1.6-10.5,2.9-15.1,3.9c-6.6,1.4-12.2,2.1-17.1,2.4
			C66.7,35.1,69.7,11.3,32.1,20c-2.1,1.7-4.1,3.5-6,5.4C15.4,36.1,7.9,50.2,5.2,65.8l6.2-1.2c9.6-2.4,18.8-6.8,28-11.2
			c12.9-6.2,25.5-12.2,38.5-12.2c13.5,0,21.7,6.6,30.6,13.8c10.6,8.5,22.2,17.7,44.6,17.2h0h0h0h0h0h0l0,0h0h0h0h0h0h0h0h0l0,0h0h0
			h0h0h0h0h0h0h0h0l0,0h0h0h0h0h0h0h0l0,0h0h0h0h0h0h0l0,0h0h0h0h0h0h0h0l0,0h0h0h0l0,0h0h0h0h0h0h0l0,0h0h0h0h0l0,0h0h0h0h0h0h0
			l0,0h0h0h0h0l0,0h0h0h0h0h0l0,0h0h0h0l0,0h0L153.6,72.2L153.6,72.2L153.6,72.2L153.6,72.2L153.6,72.2L153.6,72.2L153.6,72.2
			L153.6,72.2L153.6,72.2L153.6,72.2L153.6,72.2L153.6,72.2L153.6,72.2L153.6,72.2L153.6,72.2L153.6,72.2L153.6,72.2L153.6,72.2
			L153.6,72.2L153.6,72.2L153.6,72.2L153.6,72.2L153.6,72.2L153.6,72.2L153.6,72.2L153.6,72.2z"/>
		<path clip-path="url(#SVGID_8_)" fill-rule="evenodd" clip-rule="evenodd" fill="#FCD4D1" d="M32.1,20
			C78.6,9.2,63,48.2,133.7,27.2c-0.6-0.6-1.2-1.2-1.8-1.8C118.4,11.8,99.7,3.5,79,3.5C61.3,3.5,45,9.6,32.1,20"/>
		<path clip-path="url(#SVGID_8_)" fill="#ED1C24" d="M416.9,86.2V26.4h14.3v47h23.3v12.8H416.9z M368.8,86.2V26.4h36.8v12.3h-23
			v10.8h19.7v12.3h-19.7v11.8H406v12.6H368.8z M303,86.2l30.5-61.7h0.9l29.8,61.7h-14.9l-3.8-8.7h-24.3l-3.9,8.7H303z M325.4,67.2
			h15.7l-7.8-18.7L325.4,67.2z M259.6,88.1l-25-61.8h14.5l11.6,32.3l12.5-34.2h1.1l12.6,34.2l11.5-32.3h13.3l-24.8,61.8H286
			l-12.8-34.2l-12.5,34.2H259.6z M182,86.2l30.5-61.7h0.9l29.8,61.7h-14.9l-3.8-8.7h-24.3l-3.9,8.7H182z M204.4,67.2h15.7l-7.8-18.7
			L204.4,67.2z"/>
		<g opacity="0.49" clip-path="url(#SVGID_8_)">
			<g>
				<defs>
					<rect id="SVGID_21_" x="181.7" y="14.3" width="273.2" height="92.3"/>
				</defs>
				<clipPath id="SVGID_22_">
					<use xlink:href="#SVGID_21_"  overflow="visible"/>
				</clipPath>
				<g clip-path="url(#SVGID_22_)">
					<text transform="matrix(1 0 0 1 184.215 86.6108)" fill="#B11116" font-family="'Geometric415BT-BlackA'" font-size="84.6738">AWAEL</text>
				</g>
			</g>
		</g>
	</g>
	<g clip-path="url(#SVGID_6_)">
		<text transform="matrix(1 0 0 1 179.8981 133.3296)" fill="#B11116" font-family="'JFFlat-Regular'" font-size="12.1322">Awael Company for Verification and Researches</text>
	</g>
	<path clip-path="url(#SVGID_6_)" d="M192.8,111.1v-7.2c0-0.2,0.1-0.3,0.3-0.3h1c0.2,0,0.3,0.1,0.3,0.3v7.2c0,1.7-1.1,2.7-2.8,2.7
		h-7.5c-1.3,0-2.4-0.5-3.3-1.4c-0.9-0.9-1.4-2-1.4-3.3c0-2,1.2-3.5,2.6-4.3l0.5-0.2c0,0,0.1,0,0.2,0c0.1,0,0.2,0.1,0.2,0.2l0.5,0.9
		c0,0.1,0,0.1,0,0.2c0,0.1,0,0.2-0.2,0.2l-0.5,0.2c-0.9,0.5-1.7,1.5-1.7,2.8c0,0.9,0.3,1.6,0.9,2.2s1.3,0.9,2.2,0.9h7.5
		C192.4,112.2,192.8,111.8,192.8,111.1z M185.7,102.5v-1.2c0-0.2,0.1-0.3,0.3-0.3h1.1c0.2,0,0.3,0.1,0.3,0.3v1.2
		c0,0.2-0.1,0.3-0.3,0.3H186C185.8,102.8,185.7,102.7,185.7,102.5z M187.1,100v-1.2c0-0.2,0.1-0.3,0.3-0.3h1.1
		c0.2,0,0.3,0.1,0.3,0.3v1.2c0,0.2-0.1,0.3-0.3,0.3h-1.1C187.2,100.2,187.1,100.2,187.1,100z M188.8,101.1h1.1
		c0.2,0,0.3,0.1,0.3,0.3v1.2c0,0.2-0.1,0.3-0.3,0.3h-1.1c-0.2,0-0.3-0.1-0.3-0.3v-1.2C188.5,101.2,188.6,101.1,188.8,101.1z
		 M200.5,112.2h1.1v1.6h-1c-1.7,0-2.7-1.1-2.7-2.7V98.6c0-0.2,0.1-0.3,0.3-0.3h1c0.2,0,0.3,0.1,0.3,0.3v12.5
		C199.4,111.8,199.7,112.2,200.5,112.2z M212.2,110.1v-2.1c0-0.9-0.3-1.7-1-2.4c-0.7-0.7-1.4-1-2.4-1c-1.5,0-2.7,0.5-3.5,1.6
		l-0.3,0.4c-0.1,0.1-0.2,0.1-0.2,0.1c-0.1,0-0.1,0-0.2-0.1l-0.8-0.6c-0.1,0-0.1-0.1-0.1-0.2v0c0-0.1,0-0.1,0-0.2l0.3-0.4
		c1.1-1.5,2.7-2.3,4.8-2.3c1.4,0,2.5,0.5,3.5,1.5c1,1,1.5,2.1,1.5,3.5v3.3c0,0.2,0,0.4,0.2,0.5c0.2,0.2,0.6,0.3,1.3,0.3h1v1.6h-0.7
		c-1.2,0-2.1-0.3-2.6-1.1c-0.6,0.7-1.6,1.1-2.8,1.1H201v-1.6h9.1C211.5,112.2,212.2,111.6,212.2,110.1z M220,111.1v-7.2
		c0-0.2,0.1-0.3,0.3-0.3h1c0.2,0,0.3,0.1,0.3,0.3v7.2c0,1.7-1.1,2.8-2.8,2.8h-3.2v-1.6h3.2C219.7,112.2,220,111.9,220,111.1z
		 M220.2,116v1.3c0,0.2-0.1,0.3-0.3,0.3h-1.1c-0.2,0-0.3-0.1-0.3-0.3V116c0-0.2,0.1-0.3,0.3-0.3h1.1
		C220.1,115.7,220.2,115.8,220.2,116z M233.1,110.1V98.6c0-0.2,0.1-0.3,0.3-0.3h1c0.2,0,0.3,0.1,0.3,0.3v11.6c0,2.3-1.4,3.7-3.7,3.7
		h-6.4c-0.2,0-0.3-0.1-0.3-0.3v-1c0-0.2,0.1-0.3,0.3-0.3h6.4C232.4,112.2,233.1,111.6,233.1,110.1z M227.6,110.1v-9.9
		c0-0.2,0.1-0.3,0.3-0.3h1c0.2,0,0.3,0.1,0.3,0.3v9.9c0,0.2-0.1,0.3-0.3,0.3h-1C227.7,110.4,227.6,110.3,227.6,110.1z M239.4,113.8
		h-1c-0.2,0-0.3-0.1-0.3-0.3v-15c0-0.2,0.1-0.3,0.3-0.3h1c0.2,0,0.3,0.1,0.3,0.3v15C239.7,113.7,239.6,113.8,239.4,113.8z
		 M249.9,114v-0.3h-2.9c-1.2,0-2.3-0.5-3.2-1.3c-0.9-0.9-1.3-2-1.3-3.2v-1.6c0-1.2,0.5-2.3,1.3-3.2c0.9-0.9,2-1.3,3.2-1.3
		s2.3,0.5,3.2,1.3c0.9,0.9,1.3,2,1.3,3.2v6.4c0,1.1-0.4,2.1-1.2,3c-0.8,0.8-1.8,1.2-3,1.2H245c-0.2,0-0.3-0.1-0.3-0.3v-1
		c0-0.2,0.1-0.3,0.3-0.3h2.2C248.7,116.7,249.9,115.5,249.9,114z M246.9,112.2h2.9v-4.6c0-1.6-1.3-3-2.9-3s-3,1.3-3,3v1.6
		C244,110.9,245.3,112.2,246.9,112.2z M271.5,113.9v-0.1h-3c-1.2,0-2.3-0.5-3.2-1.3s-1.3-2-1.3-3.2v-1.6c0-1.2,0.5-2.3,1.3-3.2
		s2-1.3,3.2-1.3c1.3,0,2.3,0.5,3.2,1.4c0.9,0.9,1.3,2,1.3,3.3v4.5h3.5v1.6H273v0.1c0,1.2-0.4,2.1-1.2,3s-1.8,1.3-3,1.3h-4.4
		c-1.3,0-2.4-0.5-3.3-1.4c-0.9-0.9-1.4-2-1.4-3.3v-3.4c0-0.2,0.1-0.3,0.3-0.3h1c0.2,0,0.3,0.1,0.3,0.3v3.4c0,1.7,1.4,3.1,3.1,3.1
		h4.4C270.2,116.6,271.5,115.3,271.5,113.9z M268.5,112.2h3v-4.5c0-1.7-1.3-3.1-3-3.1c-1.6,0-3,1.3-3,2.9v1.6
		C265.5,110.9,266.9,112.2,268.5,112.2z M266.2,100.7v-1.3c0-0.2,0.1-0.3,0.3-0.3h1c0.2,0,0.3,0.1,0.3,0.3v1.3
		c0,0.2-0.1,0.3-0.3,0.3h-1C266.3,101,266.2,100.9,266.2,100.7z M269,100.7v-1.3c0-0.2,0.1-0.3,0.3-0.3h1.1c0.2,0,0.3,0.1,0.3,0.3
		v1.3c0,0.2-0.1,0.3-0.3,0.3h-1.1C269.2,101,269,100.9,269,100.7z M291.6,113.8h-15.9v-1.6h4.7c-0.8-0.9-1.1-1.8-1.1-3v-1.6
		c0-1.2,0.5-2.3,1.3-3.2c0.9-0.9,2-1.3,3.2-1.3c1.2,0,2.3,0.5,3.2,1.3c0.9,0.9,1.3,2,1.3,3.2v4.6h3.2V113.8z M280.9,107.6v1.6
		c0,1.6,1.4,3,3,3h2.9v-4.6c0-1.6-1.3-3-2.9-3C282.2,104.7,280.9,106,280.9,107.6z M281.5,100.7v-1.3c0-0.2,0.1-0.3,0.3-0.3h1.1
		c0.2,0,0.3,0.1,0.3,0.3v1.3c0,0.2-0.1,0.3-0.3,0.3h-1.1C281.6,101,281.5,100.9,281.5,100.7z M284.4,100.7v-1.3
		c0-0.2,0.1-0.3,0.3-0.3h1.1c0.2,0,0.3,0.1,0.3,0.3v1.3c0,0.2-0.1,0.3-0.3,0.3h-1.1C284.5,101,284.4,100.9,284.4,100.7z M302,110.1
		v-2.1c0-0.9-0.3-1.7-1-2.4c-0.7-0.7-1.4-1-2.4-1c-1.5,0-2.7,0.5-3.5,1.6l-0.3,0.4c-0.1,0.1-0.2,0.1-0.2,0.1c-0.1,0-0.1,0-0.2-0.1
		l-0.8-0.6c-0.1,0-0.1-0.1-0.1-0.2v0c0-0.1,0-0.1,0-0.2l0.3-0.4c1.1-1.5,2.7-2.3,4.8-2.3c1.4,0,2.5,0.5,3.5,1.5c1,1,1.5,2.1,1.5,3.5
		v3.3c0,0.2,0,0.4,0.2,0.5c0.2,0.2,0.6,0.3,1.3,0.3h1v1.6h-0.7c-1.2,0-2.1-0.3-2.6-1.1c-0.6,0.7-1.6,1.1-2.8,1.1h-9.1v-1.6h9.1
		C301.4,112.2,302,111.6,302,110.1z M310.4,111v-7.2c0-0.2,0.1-0.3,0.3-0.3h1c0.2,0,0.3,0.1,0.3,0.3v7.5c0,0.2,0.1,0.4,0.2,0.5
		c0.2,0.2,0.6,0.3,1.3,0.3h1v1.6h-0.7c-1.1,0-1.9-0.3-2.4-0.8c0,0,0,0,0,0l-0.1,0.1c-0.5,0.5-1.1,0.7-2,0.7h-3.7v-1.6h3.7
		C310.1,112.2,310.4,111.8,310.4,111z M308.9,100.7v-1.3c0-0.2,0.1-0.3,0.3-0.3h1.1c0.2,0,0.3,0.1,0.3,0.3v1.3
		c0,0.2-0.1,0.3-0.3,0.3h-1.1C309,101,308.9,100.9,308.9,100.7z M311.8,100.7v-1.3c0-0.2,0.1-0.3,0.3-0.3h1.1c0.2,0,0.3,0.1,0.3,0.3
		v1.3c0,0.2-0.1,0.3-0.3,0.3h-1.1C311.9,101,311.8,100.9,311.8,100.7z M317.7,111V98.6c0-0.2,0.1-0.3,0.3-0.3h1
		c0.2,0,0.3,0.1,0.3,0.3v12.8c0,0.3,0.1,0.4,0.2,0.5c0.2,0.2,0.6,0.3,1.3,0.3h1.1v1.6H321c-1.1,0-1.8-0.3-2.4-0.8
		c0,0-0.1,0.1-0.1,0.1c-0.5,0.5-1.1,0.7-2,0.7h-2.6v-1.6h2.6C317.3,112.2,317.7,111.8,317.7,111z M324.8,111.1V98.6
		c0-0.2,0.1-0.3,0.3-0.3h1c0.2,0,0.3,0.1,0.3,0.3v12.5c0,1.7-1.1,2.7-2.7,2.7h-2.5v-1.6h2.5h0C324.5,112.2,324.8,111.8,324.8,111.1z
		 M339.1,116c0.8,0,1.6-0.3,2.2-0.9s0.9-1.4,0.9-2.2V98.6c0-0.2,0.1-0.3,0.3-0.3h1c0.2,0,0.3,0.1,0.3,0.3v13.7h3.2v1.6h-3.3
		c-0.2,1.1-0.8,2-1.6,2.7c-0.9,0.7-1.8,1.1-3,1.1c-1.3,0-2.4-0.5-3.3-1.4s-1.4-2-1.4-3.3v-5.1c0-0.2,0.1-0.3,0.3-0.3h1
		c0.2,0,0.3,0.1,0.3,0.3v5.1C336,114.6,337.4,116,339.1,116z M350.5,111.1v-7.2c0-0.2,0.1-0.3,0.3-0.3h1c0.2,0,0.3,0.1,0.3,0.3v7.2
		c0,1.7-1.1,2.7-2.8,2.7h-3.2v-1.6h3.2h0C350.1,112.2,350.5,111.8,350.5,111.1z M350.7,99.8v1.2h2.2c0.1,0,0.2,0.1,0.2,0.2v0.5
		c0,0.1-0.1,0.2-0.2,0.2h-3.7c-0.1,0-0.2-0.1-0.2-0.2v-0.5c0-0.2,0.1-0.2,0.2-0.2h0.6v-1.2c0-0.9,0.7-1.6,1.6-1.6
		c0.7,0,1.2,0.3,1.5,1l0.1,0.2c0,0,0,0.1,0,0.1c0,0.1,0,0.1-0.1,0.2l-0.4,0.2c0,0-0.1,0-0.1,0c-0.1,0-0.1-0.1-0.2-0.2l-0.1-0.2
		c-0.1-0.3-0.4-0.5-0.7-0.5C351,99,350.7,99.4,350.7,99.8z M357.1,113.8h-1c-0.2,0-0.3-0.1-0.3-0.3v-15c0-0.2,0.1-0.3,0.3-0.3h1
		c0.2,0,0.3,0.1,0.3,0.3v15C357.4,113.7,357.3,113.8,357.1,113.8z M367.6,114v-0.3h-2.9c-1.2,0-2.3-0.5-3.2-1.3
		c-0.9-0.9-1.3-2-1.3-3.2v-1.6c0-1.2,0.5-2.3,1.3-3.2c0.9-0.9,2-1.3,3.2-1.3s2.3,0.5,3.2,1.3c0.9,0.9,1.3,2,1.3,3.2v6.4
		c0,1.1-0.4,2.1-1.2,3c-0.8,0.8-1.8,1.2-3,1.2h-2.2c-0.2,0-0.3-0.1-0.3-0.3v-1c0-0.2,0.1-0.3,0.3-0.3h2.2
		C366.4,116.7,367.6,115.5,367.6,114z M364.7,112.2h2.9v-4.6c0-1.6-1.3-3-2.9-3s-3,1.3-3,3v1.6C361.7,110.9,363,112.2,364.7,112.2z
		 M380.6,110.1V98.6c0-0.2,0.1-0.3,0.3-0.3h1c0.2,0,0.3,0.1,0.3,0.3v11.6c0,2.3-1.4,3.7-3.7,3.7h-6.4c-0.2,0-0.3-0.1-0.3-0.3v-1
		c0-0.2,0.1-0.3,0.3-0.3h6.4C380,112.2,380.6,111.6,380.6,110.1z M375.2,110.1v-9.9c0-0.2,0.1-0.3,0.3-0.3h1c0.2,0,0.3,0.1,0.3,0.3
		v9.9c0,0.2-0.1,0.3-0.3,0.3h-1C375.3,110.4,375.2,110.3,375.2,110.1z M387,113.8h-1c-0.2,0-0.3-0.1-0.3-0.3v-15
		c0-0.2,0.1-0.3,0.3-0.3h1c0.2,0,0.3,0.1,0.3,0.3v15C387.2,113.7,387.1,113.8,387,113.8z M407.7,113.8h-7.9c-1.2,0-2.3-0.5-3.2-1.3
		c-0.9-0.9-1.3-2-1.3-3.2v-1.6c0-1.2,0.5-2.3,1.3-3.2c0.9-0.9,2-1.3,3.2-1.3s2.3,0.5,3.2,1.3c0.9,0.9,1.3,2,1.3,3.2v4.6h3.4V113.8z
		 M399.8,112.2h3v-4.6c0-1.6-1.3-3-3-3s-3,1.4-3,3v1.6C396.9,110.9,398.2,112.2,399.8,112.2z M397.3,100.7v-1.3
		c0-0.2,0.1-0.3,0.3-0.3h1.1c0.2,0,0.3,0.1,0.3,0.3v1.3c0,0.2-0.1,0.3-0.3,0.3h-1.1C397.4,101,397.3,100.9,397.3,100.7z
		 M400.1,100.7v-1.3c0-0.2,0.1-0.3,0.3-0.3h1.1c0.2,0,0.3,0.1,0.3,0.3v1.3c0,0.2-0.1,0.3-0.3,0.3h-1.1
		C400.2,101,400.1,100.9,400.1,100.7z M414.9,99.1h1.8c0.2,0,0.3,0.1,0.3,0.3v1c0,0.2-0.1,0.3-0.3,0.3h-1.8c-2.2,0-3.5,1.2-3.7,3.5
		h4c1.4,0,2.5,0.5,3.4,1.4s1.3,2.1,1.3,3.5v2c0,1.7-1.1,2.7-2.7,2.7h-10.6v-1.6h10.5c0.8,0,1.2-0.4,1.2-1.2v-2
		c0-1.9-1.3-3.3-3.2-3.3h-4.8c-0.4,0-0.8-0.3-0.8-0.8C409.6,101.4,411.4,99.1,414.9,99.1z M424.4,114.6v-10.8c0-0.2,0.1-0.3,0.3-0.3
		h1c0.2,0,0.3,0.1,0.3,0.3v8.4h3.3v1.6H426v0.8c0,2.3-1.4,3.7-3.7,3.7h-1.1c-0.2,0-0.3-0.1-0.3-0.3v-1c0-0.2,0.1-0.3,0.3-0.3h1.1
		C423.8,116.7,424.4,116,424.4,114.6z M443.2,111.1v-7.3c0-0.2,0.1-0.3,0.3-0.3h1c0.2,0,0.3,0.1,0.3,0.3v7.3c0,1.7-1.1,2.7-2.8,2.7
		H441c-1,0-1.8-0.3-2.4-0.8l0,0c0,0-0.1,0.1-0.1,0.1c-0.5,0.5-1.2,0.7-2,0.7h-1.1c-1.1,0-1.8-0.3-2.4-0.8l0,0
		c-0.5,0.5-1.2,0.8-2.1,0.8h-2.7v-1.6h2.8h0c0.8,0,1.1-0.4,1.1-1.2v-7.3c0-0.2,0.1-0.3,0.3-0.3h1c0.2,0,0.3,0.1,0.3,0.3v7.5
		c0,0.2,0.1,0.4,0.2,0.5c0.2,0.2,0.6,0.3,1.3,0.3h1.4c0.8,0,1.1-0.4,1.1-1.2v-6.7c0-0.2,0.1-0.3,0.3-0.3h1c0.2,0,0.3,0.1,0.3,0.3v7
		c0,0.7,0.6,0.9,1.4,0.9h1.4C442.9,112.2,443.2,111.8,443.2,111.1z M436.2,100.7v-1.3c0-0.2,0.1-0.3,0.3-0.3h1.1
		c0.2,0,0.3,0.1,0.3,0.3v1.3c0,0.2-0.1,0.3-0.3,0.3h-1.1C436.3,101,436.2,100.9,436.2,100.7z M437.7,98v-1.3c0-0.2,0.1-0.3,0.3-0.3
		h1.1c0.2,0,0.3,0.1,0.3,0.3V98c0,0.2-0.1,0.3-0.3,0.3h-1.1C437.8,98.3,437.7,98.2,437.7,98z M439.4,99.1h1.1c0.2,0,0.3,0.1,0.3,0.3
		v1.3c0,0.2-0.1,0.3-0.3,0.3h-1.1c-0.2,0-0.3-0.1-0.3-0.3v-1.3C439.1,99.2,439.2,99.1,439.4,99.1z"/>
	<g clip-path="url(#SVGID_6_)">
		<text transform="matrix(1 0 0 1 446.485 113.7807)" font-family="'JFFlat-Regular'" font-size="21.5002">  </text>
	</g>
	<g clip-path="url(#SVGID_6_)">
		<defs>
			<rect id="SVGID_23_" x="-76.6" y="-280.6" width="614" height="794"/>
		</defs>
		<clipPath id="SVGID_24_">
			<use xlink:href="#SVGID_23_"  overflow="visible"/>
		</clipPath>
		<g opacity="0.35" clip-path="url(#SVGID_24_)">
			<g>
				<defs>
					<rect id="SVGID_25_" x="23.4" y="11.4" width="31" height="31"/>
				</defs>
				<clipPath id="SVGID_26_">
					<use xlink:href="#SVGID_25_"  overflow="visible"/>
				</clipPath>
				<g clip-path="url(#SVGID_26_)">
					<defs>
						<rect id="SVGID_27_" x="23.4" y="11.4" width="31" height="31"/>
					</defs>
					<clipPath id="SVGID_28_">
						<use xlink:href="#SVGID_27_"  overflow="visible"/>
					</clipPath>
					<g clip-path="url(#SVGID_28_)">
						<image overflow="visible" width="31" height="31" xlink:href="E445ABF0.png"  transform="matrix(1 0 0 1 23.3981 11.4038)">
						</image>
					</g>
				</g>
			</g>
		</g>
		<polygon clip-path="url(#SVGID_24_)" fill-rule="evenodd" clip-rule="evenodd" fill="#F69896" points="32.1,20 32.1,20 32.1,20 		
			"/>
		<polygon clip-path="url(#SVGID_24_)" fill-rule="evenodd" clip-rule="evenodd" fill="#F69896" points="32.1,20 32.1,20 32.1,20 		
			"/>
		<g opacity="0.61" clip-path="url(#SVGID_24_)">
			<g>
				<defs>
					<rect id="SVGID_29_" x="-22.6" y="-36.6" width="210" height="108.8"/>
				</defs>
				<clipPath id="SVGID_30_">
					<use xlink:href="#SVGID_29_"  overflow="visible"/>
				</clipPath>
				<g clip-path="url(#SVGID_30_)">
					<defs>
						<path id="SVGID_31_" d="M153.6,72.2c-1.2-15.2-7-29.1-15.9-40.3c-1.3-1.6-2.6-3.2-4-4.7c-5.5,1.6-10.5,2.9-15.1,3.9
							c-6.6,1.4-12.2,2.1-17.1,2.4C66.7,35.1,69.7,11.3,32.1,20c-2.1,1.7-4.1,3.5-6,5.4C15.4,36.1,7.9,50.2,5.2,65.8l6.2-1.2
							c9.6-2.4,18.8-6.8,28-11.2c12.9-6.2,25.5-12.2,38.5-12.2c13.5,0,21.7,6.6,30.6,13.8c10.6,8.5,22.2,17.7,44.6,17.2h0h0h0h0h0h0
							l0,0h0h0h0h0h0h0h0h0l0,0h0h0h0h0h0h0h0h0h0h0l0,0h0h0h0h0h0h0h0l0,0h0h0h0h0h0h0l0,0h0h0h0h0h0h0h0l0,0h0h0l0,0h0h0h0h0h0h0
							l0,0h0h0h0h0l0,0h0h0h0h0h0h0l0,0h0h0h0h0l0,0h0h0h0h0h0l0,0h0h0h0l0,0h0L153.6,72.2L153.6,72.2L153.6,72.2L153.6,72.2
							L153.6,72.2L153.6,72.2L153.6,72.2L153.6,72.2L153.6,72.2L153.6,72.2L153.6,72.2L153.6,72.2L153.6,72.2L153.6,72.2L153.6,72.2
							L153.6,72.2L153.6,72.2L153.6,72.2L153.6,72.2L153.6,72.2L153.6,72.2L153.6,72.2L153.6,72.2L153.6,72.2L153.6,72.2z"/>
					</defs>
					<clipPath id="SVGID_32_">
						<use xlink:href="#SVGID_31_"  overflow="visible"/>
					</clipPath>
					<g opacity="0.35" clip-path="url(#SVGID_32_)">
						<g>
							<defs>
								<rect id="SVGID_33_" x="-22.6" y="-36.6" width="210" height="93"/>
							</defs>
							<clipPath id="SVGID_34_">
								<use xlink:href="#SVGID_33_"  overflow="visible"/>
							</clipPath>
							<g clip-path="url(#SVGID_34_)">
								<defs>
									<rect id="SVGID_35_" x="-22.6" y="-36.6" width="210" height="93"/>
								</defs>
								<clipPath id="SVGID_36_">
									<use xlink:href="#SVGID_35_"  overflow="visible"/>
								</clipPath>
								<g clip-path="url(#SVGID_36_)">
									
										<image overflow="visible" width="210" height="93" xlink:href="E445ABF1.png"  transform="matrix(1 0 0 1 -22.6019 -36.5962)">
									</image>
								</g>
							</g>
						</g>
					</g>
					<path clip-path="url(#SVGID_32_)" fill-rule="evenodd" clip-rule="evenodd" fill="#C25D5D" d="M153.6,2.9
						c22.6,1,6.2,32.3-2.7,21c-1.3-1.6-15.2,5.2-16.6,3.7c-0.2,0.1,0.4-0.7,0.1-0.7c-5.3,1.5-11.5,3.2-15.9,4.2
						c-6.6,1.4-12.2,2.1-17.1,2.4C66.7,35.1,69.7,11.3,32.1,20C30,21.7-3.2,21.5-5.1,23.4C-15.9,34.2-21.4-16.4,5.2-3.5l6.2-1.2
						c9.6-2.4,18.8-6.8,28-11.2c12.9-6.2,25.5-12.2,38.5-12.2c13.5,0,21.7,6.7,30.6,13.8c10.6,8.5,22.2,17.7,44.6,17.2h0h0l0,0h0h0
						h0h0h0h0h0h0h0h0h0h0l0,0h0h0h0h0h0h0h0l0,0h0h0h0h0h0h0h0h0l0,0h0h0h0h0h0h0h0h0l0,0h0h0h0h0h0h0h0l0,0h0h0h0l0,0h0h0h0h0l0,0
						h0h0h0h0h0h0l0,0h0h0h0h0l0,0h0h0h0h0h0h0l0,0h0h0h0l0,0h0h0h0h0h0l0,0h0L153.6,2.9L153.6,2.9L153.6,2.9L153.6,2.9L153.6,2.9
						L153.6,2.9L153.6,2.9L153.6,2.9L153.6,2.9L153.6,2.9L153.6,2.9L153.6,2.9L153.6,2.9L153.6,2.9L153.6,2.9L153.6,2.9L153.6,2.9
						L153.6,2.9L153.6,2.9L153.6,2.9L153.6,2.9L153.6,2.9L153.6,2.9L153.6,2.9L153.6,2.9L153.6,2.9z"/>
				</g>
			</g>
		</g>
	</g>
</g>
</svg>
