<?xml version="1.0" encoding="utf-8"?>
<!-- Generator: Adobe Illustrator 18.0.0, SVG Export Plug-In . SVG Version: 6.00 Build 0)  -->
<!DOCTYPE svg PUBLIC "-//W3C//DTD SVG 1.1//EN" "http://www.w3.org/Graphics/SVG/1.1/DTD/svg11.dtd" [
	<!ENTITY ns_extend "http://ns.adobe.com/Extensibility/1.0/">
	<!ENTITY ns_ai "http://ns.adobe.com/AdobeIllustrator/10.0/">
	<!ENTITY ns_graphs "http://ns.adobe.com/Graphs/1.0/">
	<!ENTITY ns_vars "http://ns.adobe.com/Variables/1.0/">
	<!ENTITY ns_imrep "http://ns.adobe.com/ImageReplacement/1.0/">
	<!ENTITY ns_sfw "http://ns.adobe.com/SaveForWeb/1.0/">
	<!ENTITY ns_custom "http://ns.adobe.com/GenericCustomNamespace/1.0/">
	<!ENTITY ns_adobe_xpath "http://ns.adobe.com/XPath/1.0/">
]>
<svg version="1.1" id="Layer_1" xmlns:x="&ns_extend;" xmlns:i="&ns_ai;" xmlns:graph="&ns_graphs;"
	 xmlns="http://www.w3.org/2000/svg" xmlns:xlink="http://www.w3.org/1999/xlink" x="0px" y="0px" viewBox="0 0 460 158"
	 enable-background="new 0 0 460 158" xml:space="preserve">
<metadata>
	<sfw  xmlns="&ns_sfw;">
		<slices></slices>
		<sliceSourceBounds  height="794" width="614" x="0" y="0" bottomLeftOrigin="true"></sliceSourceBounds>
	</sfw>
</metadata>
<pattern  x="-77" y="515" width="253.7" height="126.8" patternUnits="userSpaceOnUse" id="Unnamed_Pattern" viewBox="0 -126.8 253.7 126.8" overflow="visible">
	<g>
		<polygon fill="none" points="0,-126.8 253.7,-126.8 253.7,0 0,0 		"/>
		<g>
			<defs>
				<rect id="SVGID_1_" x="0" y="-126.8" width="253.7" height="126.8"/>
			</defs>
			<clipPath id="SVGID_2_">
				<use xlink:href="#SVGID_1_"  overflow="visible"/>
			</clipPath>
			<g transform="matrix(1 0 0 1 0 2.064538e-006)" clip-path="url(#SVGID_2_)">
				
					<image overflow="visible" width="1057" height="528" xlink:href="E445ABF0.jpg"  transform="matrix(0.24 0 0 0.2402 0 -126.8223)">
				</image>
			</g>
		</g>
	</g>
</pattern>
<pattern  x="-77" y="515" width="257.9" height="136" patternUnits="userSpaceOnUse" id="Unnamed_Pattern_2" viewBox="0 -136 257.9 136" overflow="visible">
	<g>
		<polygon fill="none" points="0,-136 257.9,-136 257.9,0 0,0 		"/>
		<g>
			<defs>
				<rect id="SVGID_3_" x="0" y="-136" width="257.9" height="136"/>
			</defs>
			<clipPath id="SVGID_4_">
				<use xlink:href="#SVGID_3_"  overflow="visible"/>
			</clipPath>
			<g transform="matrix(1 0 0 1 0 -5.751848e-006)" clip-path="url(#SVGID_4_)">
				
					<image overflow="visible" width="1075" height="567" xlink:href="E445ABF1.jpg"  transform="matrix(0.2399 0 0 0.2399 0 -136.0105)">
				</image>
			</g>
		</g>
	</g>
</pattern>
<g>
	<defs>
		<rect id="SVGID_5_" x="-77" y="-279" width="614" height="794"/>
	</defs>
	<clipPath id="SVGID_6_">
		<use xlink:href="#SVGID_5_"  overflow="visible"/>
	</clipPath>
	<g clip-path="url(#SVGID_6_)">
		<defs>
			<rect id="SVGID_7_" x="-77" y="-279" width="614" height="794"/>
		</defs>
		<clipPath id="SVGID_8_">
			<use xlink:href="#SVGID_7_"  overflow="visible"/>
		</clipPath>
		<path clip-path="url(#SVGID_8_)" fill-rule="evenodd" clip-rule="evenodd" fill="#C4161C" d="M144.1,116c-1,0.1-1.9,0.3-2.9,0.4
			c-0.9,0.1-1.9,0.2-2.8,0.3c-0.9,0.1-1.8,0.2-2.7,0.2c-0.9,0.1-1.7,0.1-2.6,0.2c-0.8,0-1.7,0.1-2.5,0.1c-0.8,0-1.6,0-2.4,0
			c-0.8,0-1.5,0-2.3,0c-0.7,0-1.5,0-2.2-0.1c-0.7,0-1.4-0.1-2.1-0.1c-0.7-0.1-1.3-0.1-2-0.2c-0.7-0.1-1.3-0.1-1.9-0.2v0
			c-0.6-0.1-1.2-0.2-1.8-0.3c-0.6-0.1-1.2-0.2-1.8-0.3c-0.6-0.1-1.1-0.2-1.7-0.3c-0.6-0.1-1.1-0.2-1.6-0.4c-0.5-0.1-1.1-0.3-1.6-0.4
			c-0.5-0.1-1-0.3-1.5-0.4c-0.5-0.1-1-0.3-1.5-0.4c-0.5-0.2-1-0.3-1.4-0.5c-0.5-0.2-0.9-0.3-1.4-0.5c-0.5-0.2-0.9-0.3-1.4-0.5
			c-0.4-0.2-0.9-0.3-1.3-0.5c-0.4-0.2-0.9-0.3-1.3-0.5c-0.4-0.2-0.9-0.3-1.3-0.5h0c-0.4-0.2-0.8-0.3-1.3-0.5l-1.2-0.5
			c-0.4-0.2-0.8-0.3-1.2-0.5c-0.4-0.2-0.8-0.3-1.2-0.5c-0.4-0.2-0.8-0.3-1.2-0.5c-0.4-0.2-0.8-0.3-1.2-0.5c-0.4-0.1-0.8-0.3-1.2-0.4
			c-0.4-0.1-0.8-0.3-1.2-0.4h0c-0.4-0.1-0.8-0.3-1.2-0.4c-0.4-0.1-0.8-0.2-1.3-0.4c-0.4-0.1-0.8-0.2-1.3-0.3
			c-0.4-0.1-0.9-0.2-1.3-0.3c-0.4-0.1-0.9-0.2-1.3-0.2c-0.4-0.1-0.9-0.1-1.4-0.2s-0.9-0.1-1.4-0.2c-0.5,0-1-0.1-1.4-0.1v0
			c-0.5,0-1,0-1.5-0.1c-1,0-2.1,0-3.1,0.1c-0.5,0-1.1,0.1-1.7,0.1c-0.6,0.1-1.1,0.1-1.7,0.2c-0.6,0.1-1.2,0.2-1.8,0.3
			c-0.6,0.1-1.2,0.2-1.9,0.3s-1.3,0.3-1.9,0.4c-0.7,0.1-1.3,0.3-2,0.5c-0.7,0.2-1.4,0.4-2.1,0.6c-0.7,0.2-1.4,0.4-2.2,0.7
			c-0.7,0.2-1.5,0.5-2.3,0.7c-0.8,0.3-1.6,0.5-2.4,0.8c-0.8,0.3-1.6,0.6-2.5,0.9c-0.8,0.3-1.7,0.7-2.6,1c-0.9,0.4-1.8,0.7-2.7,1.1
			c-0.9,0.4-1.8,0.8-2.8,1.2c-0.9,0.4-1.9,0.9-2.9,1.4c-1,0.5-2,1-3,1.5c-1,0.5-2.1,1-3.2,1.6c-1.1,0.5-2.2,1.1-3.3,1.7
			c-1.1,0.6-2.3,1.2-3.4,1.8c-1.2,0.6-2.3,1.3-3.6,1.9c-1.2,0.7-2.4,1.4-3.7,2.1c1.8,2.3,3.7,4.4,5.8,6.5
			c13.5,13.5,32.2,21.9,52.9,21.9c20.7,0,39.4-8.4,52.9-21.9C136.5,127.8,140.7,122.2,144.1,116"/>
		<defs>
			<filter id="Adobe_OpacityMaskFilter" filterUnits="userSpaceOnUse" x="4.7" y="79.8" width="147.5" height="74.1">
				<feColorMatrix  type="matrix" values="1 0 0 0 0  0 1 0 0 0  0 0 1 0 0  0 0 0 1 0"/>
			</filter>
		</defs>
		<mask maskUnits="userSpaceOnUse" x="4.7" y="79.8" width="147.5" height="74.1" id="SVGID_9_">
			<g filter="url(#Adobe_OpacityMaskFilter)">
				<g>
					<defs>
						<rect id="SVGID_10_" x="4.7" y="79.8" width="147.5" height="74.1"/>
					</defs>
					<clipPath id="SVGID_11_" clip-path="url(#SVGID_8_)">
						<use xlink:href="#SVGID_10_"  overflow="visible"/>
					</clipPath>
					<rect x="4.1" y="76.8" clip-path="url(#SVGID_11_)" width="148.2" height="78.8"/>
					<g enable-background="new    ">
						
							<pattern  id="SVGID_12_" xlink:href="#Unnamed_Pattern" patternTransform="matrix(0.7993 0 0 0.7993 69.1261 -684.2723)"  enable-background="new    ">
						</pattern>
						
							<rect x="4.7" y="79.8" clip-path="url(#SVGID_11_)" fill-rule="evenodd" clip-rule="evenodd" fill="url(#SVGID_12_)" width="147.5" height="74.1"/>
					</g>
				</g>
			</g>
		</mask>
		<g opacity="0.49" clip-path="url(#SVGID_8_)" mask="url(#SVGID_9_)">
			<g>
				<defs>
					<rect id="SVGID_13_" x="4.7" y="79.8" width="147.5" height="74.1"/>
				</defs>
				<clipPath id="SVGID_14_">
					<use xlink:href="#SVGID_13_"  overflow="visible"/>
				</clipPath>
				<path clip-path="url(#SVGID_14_)" fill-rule="evenodd" clip-rule="evenodd" d="M151,80c0.3,4.3,1.2-3.2,1.2,1.3
					c0,15.3-3.6,27.9-10.9,39.4c-8.3,13.1-21.3,22.2-36.5,28.2c-18.1,6.8-36.8,6.8-54.7-0.1c-22.2-9.6-39.2-31-45.4-55.1
					c-0.7-2.6,9.6-12,34.8-8.3c19.9,3,25.8,21.4,71.9,18C134.7,101.7,151,79.9,151,80"/>
			</g>
		</g>
		<path clip-path="url(#SVGID_8_)" fill-rule="evenodd" clip-rule="evenodd" fill="#ED1C24" d="M3.9,83.9L3.9,83.9l0,0.2L3.9,83.9z
			 M19.9,126.3c80.3-45.7,61.3-1.3,124.2-10.3c5.9-10.7,9.3-23,9.3-36.1c0-1,0-3.9-0.1-4.9c-1.6,0.8-3.3,1.7-5,2.5
			c-9.8,5.3-19.1,11.7-29.2,16.4c-18.3,9.7-32.6,5.2-50.8-6.3c-0.2-0.1-0.3-0.2-0.5-0.3c-1.4-0.9-2.3-1.5-4-2.4
			c-32.1-18.3-43.5-1.7-60-0.7C4.8,100,10.6,114.6,19.9,126.3"/>
		<defs>
			<filter id="Adobe_OpacityMaskFilter_1_" filterUnits="userSpaceOnUse" x="3.8" y="66.7" width="149.5" height="61.3">
				<feColorMatrix  type="matrix" values="1 0 0 0 0  0 1 0 0 0  0 0 1 0 0  0 0 0 1 0"/>
			</filter>
		</defs>
		<mask maskUnits="userSpaceOnUse" x="3.8" y="66.7" width="149.5" height="61.3" id="SVGID_15_">
			<g filter="url(#Adobe_OpacityMaskFilter_1_)">
				<g>
					<defs>
						<rect id="SVGID_16_" x="3.8" y="66.7" width="149.5" height="61.3"/>
					</defs>
					<clipPath id="SVGID_17_" clip-path="url(#SVGID_8_)">
						<use xlink:href="#SVGID_16_"  overflow="visible"/>
					</clipPath>
					<rect x="1.6" y="63.7" clip-path="url(#SVGID_17_)" width="151.8" height="64.3"/>
					<g enable-background="new    ">
						
							<pattern  id="SVGID_18_" xlink:href="#Unnamed_Pattern_2" patternTransform="matrix(0.7993 0 0 0.7993 67.8356 -710.3362)"  enable-background="new    ">
						</pattern>
						
							<rect x="3.8" y="66.7" clip-path="url(#SVGID_17_)" fill-rule="evenodd" clip-rule="evenodd" fill="url(#SVGID_18_)" width="149.5" height="61.3"/>
					</g>
				</g>
			</g>
		</mask>
		<g opacity="0.49" clip-path="url(#SVGID_8_)" mask="url(#SVGID_15_)">
			<g>
				<defs>
					<rect id="SVGID_19_" x="3.8" y="66.7" width="149.5" height="61.3"/>
				</defs>
				<clipPath id="SVGID_20_">
					<use xlink:href="#SVGID_19_"  overflow="visible"/>
				</clipPath>
				<path clip-path="url(#SVGID_20_)" fill-rule="evenodd" clip-rule="evenodd" fill="#620000" d="M153.4,75c0,15.7-3.6,34-16.6,52
					c-58,0.2-36.9-25-115.4,1C7.7,111.7,1.6,90.1,4.6,69.2c0,0,23.9-5.5,44.1-0.2c16.6,4.3,27.7,19.5,45.9,20.1
					C127.7,90.2,153.4,74.1,153.4,75"/>
			</g>
		</g>
		<path clip-path="url(#SVGID_8_)" fill-rule="evenodd" clip-rule="evenodd" fill="#F26D6A" d="M118.2,64.1
			c-0.1-0.1-0.2-0.1-0.2-0.2C118,64,118.1,64.1,118.2,64.1 M120,65.3c-0.1,0-0.1-0.1-0.2-0.1C119.8,65.2,119.9,65.2,120,65.3
			 M123,67c-0.1-0.1-0.2-0.1-0.3-0.1C122.8,66.9,122.9,67,123,67 M123.6,67.3c-0.1,0-0.2-0.1-0.3-0.1
			C123.4,67.2,123.5,67.3,123.6,67.3 M124.2,67.7l-0.2-0.1C124,67.6,124.1,67.6,124.2,67.7 M124.8,68c-0.1,0-0.2-0.1-0.2-0.1
			C124.7,67.9,124.8,68,124.8,68 M125.5,68.3c-0.1,0-0.2-0.1-0.2-0.1C125.3,68.2,125.4,68.3,125.5,68.3 M126.2,68.6
			c-0.1,0-0.2-0.1-0.3-0.1C126,68.5,126.1,68.6,126.2,68.6 M126.8,68.9c-0.1,0-0.1-0.1-0.2-0.1C126.6,68.8,126.7,68.9,126.8,68.9
			 M128.1,69.5c-0.1,0-0.1-0.1-0.2-0.1C128,69.5,128.1,69.5,128.1,69.5 M128.7,69.7L128.7,69.7L128.7,69.7L128.7,69.7z M3.9,84.1
			c16.4-0.9,27.9-17.6,60,0.7c1.7,1,2.5,1.5,4,2.4c18.4,11.8,32.8,16.4,51.3,6.6c11.8-5.4,22.5-13.2,34.1-18.9c-0.2,0-0.3,0-0.5,0
			c-11.4,0.3-20.1-2-27.2-5.3c-7.1-3.4-12.8-7.8-18.2-12.1C103,54,98.8,50.6,94,48.1C89.3,45.6,84,44,77.5,44
			c-6.3,0-12.6,1.5-18.9,3.7c-6.3,2.3-12.7,5.3-19,8.4l0,0c-9.2,4.4-18.5,8.9-28.2,11.3l0,0l-6.6,1.3c-0.5,3.7-0.8,7.4-0.8,11.2
			C3.8,81.3,3.8,82.7,3.9,84.1"/>
		<path clip-path="url(#SVGID_8_)" fill-rule="evenodd" clip-rule="evenodd" fill="#F69896" d="M31.7,21.6L31.7,21.6L31.7,21.6
			L31.7,21.6z M153.2,73.8c-1.2-15.2-7-29.1-15.9-40.3c-1.3-1.6-2.6-3.2-4-4.7c-5.5,1.6-10.5,2.9-15.1,3.9
			c-6.6,1.4-12.2,2.1-17.1,2.4c-34.7,1.6-31.8-22.2-69.3-13.5c-2.1,1.7-4.1,3.5-6,5.4C15,37.7,7.5,51.7,4.8,67.4l6.2-1.2
			c9.6-2.4,18.8-6.8,28-11.2c12.9-6.2,25.5-12.2,38.5-12.2c13.5,0,21.7,6.6,30.6,13.8c10.6,8.5,22.2,17.7,44.6,17.2h0h0h0h0h0h0l0,0
			h0h0h0h0h0h0h0h0l0,0h0h0h0h0h0h0h0h0h0h0l0,0h0h0h0h0h0h0h0l0,0h0h0h0h0h0h0l0,0h0h0h0h0h0h0h0l0,0h0h0h0l0,0h0h0h0h0h0h0l0,0h0
			h0h0h0l0,0h0h0h0h0h0h0l0,0h0h0h0h0l0,0h0h0h0h0h0l0,0h0h0h0l0,0h0L153.2,73.8L153.2,73.8L153.2,73.8L153.2,73.8L153.2,73.8
			L153.2,73.8L153.2,73.8L153.2,73.8L153.2,73.8L153.2,73.8L153.2,73.8L153.2,73.8L153.2,73.8L153.2,73.8L153.2,73.8L153.2,73.8
			L153.2,73.8L153.2,73.8L153.2,73.8L153.2,73.8L153.2,73.8L153.2,73.8L153.2,73.8L153.2,73.8L153.2,73.8L153.2,73.8z"/>
		<path clip-path="url(#SVGID_8_)" fill-rule="evenodd" clip-rule="evenodd" fill="#FCD4D1" d="M31.7,21.6
			c46.5-10.7,30.9,28.3,101.5,7.2c-0.6-0.6-1.2-1.2-1.8-1.8C118,13.4,99.3,5.1,78.6,5.1C60.9,5.1,44.6,11.2,31.7,21.6"/>
		<path clip-path="url(#SVGID_8_)" fill="#ED1C24" d="M416.5,87.8V28h14.3v47h23.3v12.8H416.5z M368.4,87.8V28h36.8v12.3h-23v10.8
			h19.7v12.3h-19.7v11.8h23.3v12.6H368.4z M302.6,87.8l30.5-61.7h0.9l29.8,61.7H349l-3.8-8.7h-24.3l-3.9,8.7H302.6z M325,68.8h15.7
			L333,50L325,68.8z M259.2,89.7l-25-61.8h14.5l11.6,32.3L272.8,26h1.1l12.6,34.2L298,28h13.3l-24.8,61.8h-0.9l-12.8-34.2
			l-12.5,34.2H259.2z M181.6,87.8l30.5-61.7h0.9l29.8,61.7h-14.9l-3.8-8.7h-24.3l-3.9,8.7H181.6z M204,68.8h15.7L211.9,50L204,68.8z
			"/>
		<g opacity="0.49" clip-path="url(#SVGID_8_)">
			<g>
				<defs>
					<rect id="SVGID_21_" x="181.3" y="15.9" width="273.2" height="92.3"/>
				</defs>
				<clipPath id="SVGID_22_">
					<use xlink:href="#SVGID_21_"  overflow="visible"/>
				</clipPath>
				<g clip-path="url(#SVGID_22_)">
					<text transform="matrix(1 0 0 1 183.8169 88.207)" fill="#B11116" font-family="'Geometric415BT-BlackA'" font-size="84.6738">AWAEL</text>
				</g>
			</g>
		</g>
	</g>
	<g clip-path="url(#SVGID_6_)">
		<text transform="matrix(1 0 0 1 179.5 134.9258)" fill="#B11116" font-family="'JFFlat-Regular'" font-size="12.1322">Awael Company for Verification and Researches</text>
	</g>
	<path clip-path="url(#SVGID_6_)" d="M192.4,112.6v-7.2c0-0.2,0.1-0.3,0.3-0.3h1c0.2,0,0.3,0.1,0.3,0.3v7.2c0,1.7-1.1,2.7-2.8,2.7
		h-7.5c-1.3,0-2.4-0.5-3.3-1.4c-0.9-0.9-1.4-2-1.4-3.3c0-2,1.2-3.5,2.6-4.3l0.5-0.2c0,0,0.1,0,0.2,0c0.1,0,0.2,0.1,0.2,0.2l0.5,0.9
		c0,0.1,0,0.1,0,0.2c0,0.1,0,0.2-0.2,0.2l-0.5,0.2c-0.9,0.5-1.7,1.5-1.7,2.8c0,0.9,0.3,1.6,0.9,2.2s1.3,0.9,2.2,0.9h7.5
		C192,113.8,192.4,113.4,192.4,112.6z M185.3,104.1V103c0-0.2,0.1-0.3,0.3-0.3h1.1c0.2,0,0.3,0.1,0.3,0.3v1.2c0,0.2-0.1,0.3-0.3,0.3
		h-1.1C185.4,104.4,185.3,104.3,185.3,104.1z M186.7,101.6v-1.2c0-0.2,0.1-0.3,0.3-0.3h1.1c0.2,0,0.3,0.1,0.3,0.3v1.2
		c0,0.2-0.1,0.3-0.3,0.3H187C186.8,101.8,186.7,101.7,186.7,101.6z M188.4,102.7h1.1c0.2,0,0.3,0.1,0.3,0.3v1.2
		c0,0.2-0.1,0.3-0.3,0.3h-1.1c-0.2,0-0.3-0.1-0.3-0.3V103C188.1,102.8,188.2,102.7,188.4,102.7z M200.1,113.8h1.1v1.6h-1
		c-1.7,0-2.7-1.1-2.7-2.7v-12.5c0-0.2,0.1-0.3,0.3-0.3h1c0.2,0,0.3,0.1,0.3,0.3v12.5C199,113.4,199.3,113.8,200.1,113.8z
		 M211.8,111.7v-2.1c0-0.9-0.3-1.7-1-2.4c-0.7-0.7-1.4-1-2.4-1c-1.5,0-2.7,0.5-3.5,1.6l-0.3,0.4c-0.1,0.1-0.2,0.1-0.2,0.1
		c-0.1,0-0.1,0-0.2-0.1l-0.8-0.6c-0.1,0-0.1-0.1-0.1-0.2v0c0-0.1,0-0.1,0-0.2l0.3-0.4c1.1-1.5,2.7-2.3,4.8-2.3
		c1.4,0,2.5,0.5,3.5,1.5c1,1,1.5,2.1,1.5,3.5v3.3c0,0.2,0,0.4,0.2,0.5c0.2,0.2,0.6,0.3,1.3,0.3h1v1.6h-0.7c-1.2,0-2.1-0.3-2.6-1.1
		c-0.6,0.7-1.6,1.1-2.8,1.1h-9.1v-1.6h9.1C211.1,113.8,211.8,113.2,211.8,111.7z M219.6,112.6v-7.2c0-0.2,0.1-0.3,0.3-0.3h1
		c0.2,0,0.3,0.1,0.3,0.3v7.2c0,1.7-1.1,2.8-2.8,2.8h-3.2v-1.6h3.2C219.3,113.8,219.6,113.5,219.6,112.6z M219.8,117.6v1.3
		c0,0.2-0.1,0.3-0.3,0.3h-1.1c-0.2,0-0.3-0.1-0.3-0.3v-1.3c0-0.2,0.1-0.3,0.3-0.3h1.1C219.7,117.3,219.8,117.4,219.8,117.6z
		 M232.7,111.7v-11.6c0-0.2,0.1-0.3,0.3-0.3h1c0.2,0,0.3,0.1,0.3,0.3v11.6c0,2.3-1.4,3.7-3.7,3.7h-6.4c-0.2,0-0.3-0.1-0.3-0.3v-1
		c0-0.2,0.1-0.3,0.3-0.3h6.4C232,113.8,232.7,113.2,232.7,111.7z M227.2,111.7v-9.9c0-0.2,0.1-0.3,0.3-0.3h1c0.2,0,0.3,0.1,0.3,0.3
		v9.9c0,0.2-0.1,0.3-0.3,0.3h-1C227.3,112,227.2,111.9,227.2,111.7z M239,115.4h-1c-0.2,0-0.3-0.1-0.3-0.3v-15
		c0-0.2,0.1-0.3,0.3-0.3h1c0.2,0,0.3,0.1,0.3,0.3v15C239.3,115.3,239.2,115.4,239,115.4z M249.5,115.6v-0.3h-2.9
		c-1.2,0-2.3-0.5-3.2-1.3c-0.9-0.9-1.3-2-1.3-3.2v-1.6c0-1.2,0.5-2.3,1.3-3.2c0.9-0.9,2-1.3,3.2-1.3s2.3,0.5,3.2,1.3
		c0.9,0.9,1.3,2,1.3,3.2v6.4c0,1.1-0.4,2.1-1.2,3c-0.8,0.8-1.8,1.2-3,1.2h-2.2c-0.2,0-0.3-0.1-0.3-0.3v-1c0-0.2,0.1-0.3,0.3-0.3h2.2
		C248.3,118.3,249.5,117.1,249.5,115.6z M246.5,113.8h2.9v-4.6c0-1.6-1.3-3-2.9-3s-3,1.3-3,3v1.6
		C243.6,112.5,244.9,113.8,246.5,113.8z M271.1,115.5v-0.1h-3c-1.2,0-2.3-0.5-3.2-1.3s-1.3-2-1.3-3.2v-1.6c0-1.2,0.5-2.3,1.3-3.2
		s2-1.3,3.2-1.3c1.3,0,2.3,0.5,3.2,1.4c0.9,0.9,1.3,2,1.3,3.3v4.5h3.5v1.6h-3.5v0.1c0,1.2-0.4,2.1-1.2,3s-1.8,1.3-3,1.3H264
		c-1.3,0-2.4-0.5-3.3-1.4c-0.9-0.9-1.4-2-1.4-3.3v-3.4c0-0.2,0.1-0.3,0.3-0.3h1c0.2,0,0.3,0.1,0.3,0.3v3.4c0,1.7,1.4,3.1,3.1,3.1
		h4.4C269.8,118.2,271.1,116.9,271.1,115.5z M268.1,113.8h3v-4.5c0-1.7-1.3-3.1-3-3.1c-1.6,0-3,1.3-3,2.9v1.6
		C265.1,112.5,266.5,113.8,268.1,113.8z M265.8,102.3V101c0-0.2,0.1-0.3,0.3-0.3h1c0.2,0,0.3,0.1,0.3,0.3v1.3c0,0.2-0.1,0.3-0.3,0.3
		h-1C265.9,102.6,265.8,102.5,265.8,102.3z M268.6,102.3V101c0-0.2,0.1-0.3,0.3-0.3h1.1c0.2,0,0.3,0.1,0.3,0.3v1.3
		c0,0.2-0.1,0.3-0.3,0.3h-1.1C268.8,102.6,268.6,102.5,268.6,102.3z M291.2,115.4h-15.9v-1.6h4.7c-0.8-0.9-1.1-1.8-1.1-3v-1.6
		c0-1.2,0.5-2.3,1.3-3.2c0.9-0.9,2-1.3,3.2-1.3c1.2,0,2.3,0.5,3.2,1.3c0.9,0.9,1.3,2,1.3,3.2v4.6h3.2V115.4z M280.5,109.2v1.6
		c0,1.6,1.4,3,3,3h2.9v-4.6c0-1.6-1.3-3-2.9-3C281.8,106.3,280.5,107.6,280.5,109.2z M281.1,102.3V101c0-0.2,0.1-0.3,0.3-0.3h1.1
		c0.2,0,0.3,0.1,0.3,0.3v1.3c0,0.2-0.1,0.3-0.3,0.3h-1.1C281.2,102.6,281.1,102.5,281.1,102.3z M284,102.3V101
		c0-0.2,0.1-0.3,0.3-0.3h1.1c0.2,0,0.3,0.1,0.3,0.3v1.3c0,0.2-0.1,0.3-0.3,0.3h-1.1C284.1,102.6,284,102.5,284,102.3z M301.6,111.7
		v-2.1c0-0.9-0.3-1.7-1-2.4c-0.7-0.7-1.4-1-2.4-1c-1.5,0-2.7,0.5-3.5,1.6l-0.3,0.4c-0.1,0.1-0.2,0.1-0.2,0.1c-0.1,0-0.1,0-0.2-0.1
		l-0.8-0.6c-0.1,0-0.1-0.1-0.1-0.2v0c0-0.1,0-0.1,0-0.2l0.3-0.4c1.1-1.5,2.7-2.3,4.8-2.3c1.4,0,2.5,0.5,3.5,1.5c1,1,1.5,2.1,1.5,3.5
		v3.3c0,0.2,0,0.4,0.2,0.5c0.2,0.2,0.6,0.3,1.3,0.3h1v1.6H305c-1.2,0-2.1-0.3-2.6-1.1c-0.6,0.7-1.6,1.1-2.8,1.1h-9.1v-1.6h9.1
		C301,113.8,301.6,113.2,301.6,111.7z M310,112.6v-7.2c0-0.2,0.1-0.3,0.3-0.3h1c0.2,0,0.3,0.1,0.3,0.3v7.5c0,0.2,0.1,0.4,0.2,0.5
		c0.2,0.2,0.6,0.3,1.3,0.3h1v1.6h-0.7c-1.1,0-1.9-0.3-2.4-0.8c0,0,0,0,0,0l-0.1,0.1c-0.5,0.5-1.1,0.7-2,0.7h-3.7v-1.6h3.7
		C309.7,113.8,310,113.4,310,112.6z M308.5,102.3V101c0-0.2,0.1-0.3,0.3-0.3h1.1c0.2,0,0.3,0.1,0.3,0.3v1.3c0,0.2-0.1,0.3-0.3,0.3
		h-1.1C308.6,102.6,308.5,102.5,308.5,102.3z M311.4,102.3V101c0-0.2,0.1-0.3,0.3-0.3h1.1c0.2,0,0.3,0.1,0.3,0.3v1.3
		c0,0.2-0.1,0.3-0.3,0.3h-1.1C311.5,102.6,311.4,102.5,311.4,102.3z M317.3,112.6v-12.5c0-0.2,0.1-0.3,0.3-0.3h1
		c0.2,0,0.3,0.1,0.3,0.3v12.8c0,0.3,0.1,0.4,0.2,0.5c0.2,0.2,0.6,0.3,1.3,0.3h1.1v1.6h-0.8c-1.1,0-1.8-0.3-2.4-0.8
		c0,0-0.1,0.1-0.1,0.1c-0.5,0.5-1.1,0.7-2,0.7h-2.6v-1.6h2.6C316.9,113.8,317.3,113.4,317.3,112.6z M324.4,112.6v-12.5
		c0-0.2,0.1-0.3,0.3-0.3h1c0.2,0,0.3,0.1,0.3,0.3v12.5c0,1.7-1.1,2.7-2.7,2.7h-2.5v-1.6h2.5h0C324.1,113.8,324.4,113.4,324.4,112.6z
		 M338.7,117.6c0.8,0,1.6-0.3,2.2-0.9s0.9-1.4,0.9-2.2v-14.3c0-0.2,0.1-0.3,0.3-0.3h1c0.2,0,0.3,0.1,0.3,0.3v13.7h3.2v1.6h-3.3
		c-0.2,1.1-0.8,2-1.6,2.7c-0.9,0.7-1.8,1.1-3,1.1c-1.3,0-2.4-0.5-3.3-1.4s-1.4-2-1.4-3.3v-5.1c0-0.2,0.1-0.3,0.3-0.3h1
		c0.2,0,0.3,0.1,0.3,0.3v5.1C335.6,116.2,337,117.6,338.7,117.6z M350.1,112.6v-7.2c0-0.2,0.1-0.3,0.3-0.3h1c0.2,0,0.3,0.1,0.3,0.3
		v7.2c0,1.7-1.1,2.7-2.8,2.7h-3.2v-1.6h3.2h0C349.7,113.8,350.1,113.4,350.1,112.6z M350.3,101.4v1.2h2.2c0.1,0,0.2,0.1,0.2,0.2v0.5
		c0,0.1-0.1,0.2-0.2,0.2h-3.7c-0.1,0-0.2-0.1-0.2-0.2v-0.5c0-0.2,0.1-0.2,0.2-0.2h0.6v-1.2c0-0.9,0.7-1.6,1.6-1.6
		c0.7,0,1.2,0.3,1.5,1l0.1,0.2c0,0,0,0.1,0,0.1c0,0.1,0,0.1-0.1,0.2l-0.4,0.2c0,0-0.1,0-0.1,0c-0.1,0-0.1-0.1-0.2-0.2l-0.1-0.2
		c-0.1-0.3-0.4-0.5-0.7-0.5C350.6,100.6,350.3,101,350.3,101.4z M356.7,115.4h-1c-0.2,0-0.3-0.1-0.3-0.3v-15c0-0.2,0.1-0.3,0.3-0.3
		h1c0.2,0,0.3,0.1,0.3,0.3v15C357,115.3,356.9,115.4,356.7,115.4z M367.2,115.6v-0.3h-2.9c-1.2,0-2.3-0.5-3.2-1.3
		c-0.9-0.9-1.3-2-1.3-3.2v-1.6c0-1.2,0.5-2.3,1.3-3.2c0.9-0.9,2-1.3,3.2-1.3s2.3,0.5,3.2,1.3c0.9,0.9,1.3,2,1.3,3.2v6.4
		c0,1.1-0.4,2.1-1.2,3c-0.8,0.8-1.8,1.2-3,1.2h-2.2c-0.2,0-0.3-0.1-0.3-0.3v-1c0-0.2,0.1-0.3,0.3-0.3h2.2
		C366,118.3,367.2,117.1,367.2,115.6z M364.3,113.8h2.9v-4.6c0-1.6-1.3-3-2.9-3s-3,1.3-3,3v1.6C361.3,112.5,362.6,113.8,364.3,113.8
		z M380.2,111.7v-11.6c0-0.2,0.1-0.3,0.3-0.3h1c0.2,0,0.3,0.1,0.3,0.3v11.6c0,2.3-1.4,3.7-3.7,3.7h-6.4c-0.2,0-0.3-0.1-0.3-0.3v-1
		c0-0.2,0.1-0.3,0.3-0.3h6.4C379.6,113.8,380.2,113.2,380.2,111.7z M374.8,111.7v-9.9c0-0.2,0.1-0.3,0.3-0.3h1
		c0.2,0,0.3,0.1,0.3,0.3v9.9c0,0.2-0.1,0.3-0.3,0.3h-1C374.9,112,374.8,111.9,374.8,111.7z M386.6,115.4h-1c-0.2,0-0.3-0.1-0.3-0.3
		v-15c0-0.2,0.1-0.3,0.3-0.3h1c0.2,0,0.3,0.1,0.3,0.3v15C386.8,115.3,386.7,115.4,386.6,115.4z M407.3,115.4h-7.9
		c-1.2,0-2.3-0.5-3.2-1.3c-0.9-0.9-1.3-2-1.3-3.2v-1.6c0-1.2,0.5-2.3,1.3-3.2c0.9-0.9,2-1.3,3.2-1.3s2.3,0.5,3.2,1.3
		c0.9,0.9,1.3,2,1.3,3.2v4.6h3.4V115.4z M399.4,113.8h3v-4.6c0-1.6-1.3-3-3-3s-3,1.4-3,3v1.6C396.5,112.5,397.8,113.8,399.4,113.8z
		 M396.9,102.3V101c0-0.2,0.1-0.3,0.3-0.3h1.1c0.2,0,0.3,0.1,0.3,0.3v1.3c0,0.2-0.1,0.3-0.3,0.3h-1.1
		C397,102.6,396.9,102.5,396.9,102.3z M399.7,102.3V101c0-0.2,0.1-0.3,0.3-0.3h1.1c0.2,0,0.3,0.1,0.3,0.3v1.3c0,0.2-0.1,0.3-0.3,0.3
		H400C399.8,102.6,399.7,102.5,399.7,102.3z M414.5,100.7h1.8c0.2,0,0.3,0.1,0.3,0.3v1c0,0.2-0.1,0.3-0.3,0.3h-1.8
		c-2.2,0-3.5,1.2-3.7,3.5h4c1.4,0,2.5,0.5,3.4,1.4s1.3,2.1,1.3,3.5v2c0,1.7-1.1,2.7-2.7,2.7h-10.6v-1.6h10.5c0.8,0,1.2-0.4,1.2-1.2
		v-2c0-1.9-1.3-3.3-3.2-3.3H410c-0.4,0-0.8-0.3-0.8-0.8C409.2,103,411,100.7,414.5,100.7z M424,116.2v-10.8c0-0.2,0.1-0.3,0.3-0.3h1
		c0.2,0,0.3,0.1,0.3,0.3v8.4h3.3v1.6h-3.3v0.8c0,2.3-1.4,3.7-3.7,3.7h-1.1c-0.2,0-0.3-0.1-0.3-0.3v-1c0-0.2,0.1-0.3,0.3-0.3h1.1
		C423.4,118.3,424,117.6,424,116.2z M442.8,112.6v-7.3c0-0.2,0.1-0.3,0.3-0.3h1c0.2,0,0.3,0.1,0.3,0.3v7.3c0,1.7-1.1,2.7-2.8,2.7
		h-1.1c-1,0-1.8-0.3-2.4-0.8l0,0c0,0-0.1,0.1-0.1,0.1c-0.5,0.5-1.2,0.7-2,0.7h-1.1c-1.1,0-1.8-0.3-2.4-0.8l0,0
		c-0.5,0.5-1.2,0.8-2.1,0.8h-2.7v-1.6h2.8h0c0.8,0,1.1-0.4,1.1-1.2v-7.3c0-0.2,0.1-0.3,0.3-0.3h1c0.2,0,0.3,0.1,0.3,0.3v7.5
		c0,0.2,0.1,0.4,0.2,0.5c0.2,0.2,0.6,0.3,1.3,0.3h1.4c0.8,0,1.1-0.4,1.1-1.2V106c0-0.2,0.1-0.3,0.3-0.3h1c0.2,0,0.3,0.1,0.3,0.3v7
		c0,0.7,0.6,0.9,1.4,0.9h1.4C442.5,113.8,442.8,113.4,442.8,112.6z M435.8,102.3V101c0-0.2,0.1-0.3,0.3-0.3h1.1
		c0.2,0,0.3,0.1,0.3,0.3v1.3c0,0.2-0.1,0.3-0.3,0.3h-1.1C435.9,102.6,435.8,102.5,435.8,102.3z M437.3,99.6v-1.3
		c0-0.2,0.1-0.3,0.3-0.3h1.1c0.2,0,0.3,0.1,0.3,0.3v1.3c0,0.2-0.1,0.3-0.3,0.3h-1.1C437.4,99.9,437.3,99.8,437.3,99.6z M439,100.7
		h1.1c0.2,0,0.3,0.1,0.3,0.3v1.3c0,0.2-0.1,0.3-0.3,0.3H439c-0.2,0-0.3-0.1-0.3-0.3V101C438.7,100.8,438.8,100.7,439,100.7z"/>
	<g clip-path="url(#SVGID_6_)">
		<text transform="matrix(1 0 0 1 446.0869 115.377)" font-family="'JFFlat-Regular'" font-size="21.5002">  </text>
	</g>
	<g clip-path="url(#SVGID_6_)">
		<defs>
			<rect id="SVGID_23_" x="-77" y="-279" width="614" height="794"/>
		</defs>
		<clipPath id="SVGID_24_">
			<use xlink:href="#SVGID_23_"  overflow="visible"/>
		</clipPath>
		<g opacity="0.35" clip-path="url(#SVGID_24_)">
			<g>
				<defs>
					<rect id="SVGID_25_" x="23" y="13" width="31" height="31"/>
				</defs>
				<clipPath id="SVGID_26_">
					<use xlink:href="#SVGID_25_"  overflow="visible"/>
				</clipPath>
				<g clip-path="url(#SVGID_26_)">
					<defs>
						<rect id="SVGID_27_" x="23" y="13" width="31" height="31"/>
					</defs>
					<clipPath id="SVGID_28_">
						<use xlink:href="#SVGID_27_"  overflow="visible"/>
					</clipPath>
					<g clip-path="url(#SVGID_28_)">
						<image overflow="visible" width="31" height="31" xlink:href="E445ABF0.png"  transform="matrix(1 0 0 1 23 13)">
						</image>
					</g>
				</g>
			</g>
		</g>
		<polygon clip-path="url(#SVGID_24_)" fill-rule="evenodd" clip-rule="evenodd" fill="#F69896" points="31.7,21.6 31.7,21.6 
			31.7,21.6 		"/>
		<polygon clip-path="url(#SVGID_24_)" fill-rule="evenodd" clip-rule="evenodd" fill="#F69896" points="31.7,21.6 31.7,21.6 
			31.7,21.6 		"/>
		<g opacity="0.61" clip-path="url(#SVGID_24_)">
			<g>
				<defs>
					<rect id="SVGID_29_" x="-23" y="-35" width="210" height="108.8"/>
				</defs>
				<clipPath id="SVGID_30_">
					<use xlink:href="#SVGID_29_"  overflow="visible"/>
				</clipPath>
				<g clip-path="url(#SVGID_30_)">
					<defs>
						<path id="SVGID_31_" d="M153.2,73.8c-1.2-15.2-7-29.1-15.9-40.3c-1.3-1.6-2.6-3.2-4-4.7c-5.5,1.6-10.5,2.9-15.1,3.9
							c-6.6,1.4-12.2,2.1-17.1,2.4c-34.7,1.6-31.8-22.2-69.3-13.5c-2.1,1.7-4.1,3.5-6,5.4C15,37.7,7.5,51.7,4.8,67.4l6.2-1.2
							c9.6-2.4,18.8-6.8,28-11.2c12.9-6.2,25.5-12.2,38.5-12.2c13.5,0,21.7,6.6,30.6,13.8c10.6,8.5,22.2,17.7,44.6,17.2h0h0h0h0h0h0
							l0,0h0h0h0h0h0h0h0h0l0,0h0h0h0h0h0h0h0h0h0h0l0,0h0h0h0h0h0h0h0l0,0h0h0h0h0h0h0l0,0h0h0h0h0h0h0h0l0,0h0h0l0,0h0h0h0h0h0h0
							l0,0h0h0h0h0l0,0h0h0h0h0h0h0l0,0h0h0h0h0l0,0h0h0h0h0h0l0,0h0h0h0l0,0h0L153.2,73.8L153.2,73.8L153.2,73.8L153.2,73.8
							L153.2,73.8L153.2,73.8L153.2,73.8L153.2,73.8L153.2,73.8L153.2,73.8L153.2,73.8L153.2,73.8L153.2,73.8L153.2,73.8L153.2,73.8
							L153.2,73.8L153.2,73.8L153.2,73.8L153.2,73.8L153.2,73.8L153.2,73.8L153.2,73.8L153.2,73.8L153.2,73.8L153.2,73.8z"/>
					</defs>
					<clipPath id="SVGID_32_">
						<use xlink:href="#SVGID_31_"  overflow="visible"/>
					</clipPath>
					<g opacity="0.35" clip-path="url(#SVGID_32_)">
						<g>
							<defs>
								<rect id="SVGID_33_" x="-23" y="-35" width="210" height="93"/>
							</defs>
							<clipPath id="SVGID_34_">
								<use xlink:href="#SVGID_33_"  overflow="visible"/>
							</clipPath>
							<g clip-path="url(#SVGID_34_)">
								<defs>
									<rect id="SVGID_35_" x="-23" y="-35" width="210" height="93"/>
								</defs>
								<clipPath id="SVGID_36_">
									<use xlink:href="#SVGID_35_"  overflow="visible"/>
								</clipPath>
								<g clip-path="url(#SVGID_36_)">
									<image overflow="visible" width="210" height="93" xlink:href="E445ABF1.png"  transform="matrix(1 0 0 1 -23 -35)">
									</image>
								</g>
							</g>
						</g>
					</g>
					<path clip-path="url(#SVGID_32_)" fill-rule="evenodd" clip-rule="evenodd" fill="#C25D5D" d="M153.2,4.5
						c22.6,1,6.2,32.3-2.7,21c-1.3-1.6-15.2,5.2-16.6,3.7c-0.2,0.1,0.4-0.7,0.1-0.7c-5.3,1.5-11.5,3.2-15.9,4.2
						c-6.6,1.4-12.2,2.1-17.1,2.4c-34.7,1.6-31.8-22.2-69.3-13.5C29.6,23.3-3.6,23.1-5.5,25C-16.3,35.8-21.8-14.8,4.8-1.9L11-3.1
						c9.6-2.4,18.8-6.8,28-11.2c12.9-6.2,25.5-12.2,38.5-12.2c13.5,0,21.7,6.7,30.6,13.8C118.8-4.2,130.3,5,152.8,4.5h0h0l0,0h0h0h0
						h0h0h0h0h0h0h0h0h0l0,0h0h0h0h0h0h0h0l0,0h0h0h0h0h0h0h0h0l0,0h0h0h0h0h0h0h0h0l0,0h0h0h0h0h0h0h0l0,0h0h0h0l0,0h0h0h0h0l0,0h0
						h0h0h0h0h0l0,0h0h0h0h0l0,0h0h0h0h0h0h0l0,0h0h0h0l0,0h0h0h0h0h0l0,0h0L153.2,4.5L153.2,4.5L153.2,4.5L153.2,4.5L153.2,4.5
						L153.2,4.5L153.2,4.5L153.2,4.5L153.2,4.5L153.2,4.5L153.2,4.5L153.2,4.5L153.2,4.5L153.2,4.5L153.2,4.5L153.2,4.5L153.2,4.5
						L153.2,4.5L153.2,4.5L153.2,4.5L153.2,4.5L153.2,4.5L153.2,4.5L153.2,4.5L153.2,4.5L153.2,4.5z"/>
				</g>
			</g>
		</g>
	</g>
</g>
</svg>
